<svg width="188" height="56" viewBox="0 0 188 56" fill="none" xmlns="http://www.w3.org/2000/svg">
<g clip-path="url(#clip0_2014_2168)">
<path d="M137.415 16.0294C137.483 16.8619 138.194 17.4291 139.362 17.4291C140.433 17.4291 141.231 16.8716 141.26 16.0294H140.14C140.102 16.4505 139.8 16.5966 139.362 16.5966C138.875 16.5966 138.612 16.4115 138.534 16.0294H137.414H137.415ZM137.386 24.546L140.96 19.6809V24.546H142.157V17.6944H141.105L137.531 22.5692V17.6944H136.334V24.546H137.386ZM129.674 24.546L133.248 19.6809V24.546H134.445V17.6944H133.393L129.82 22.5692V17.6944H128.622V24.546H129.674ZM122.08 24.546H123.277V21.0125L126.062 24.546H127.581L124.601 20.8847L127.405 17.6933H125.965L123.278 20.9432V17.6933H122.081V24.5449L122.08 24.546ZM120.434 22.9795C119.967 23.3411 119.393 23.5273 118.818 23.5273C117.426 23.5273 116.462 22.5487 116.462 21.1197C116.462 19.6906 117.416 18.712 118.682 18.712C119.364 18.712 119.811 18.8971 120.22 19.1721L120.756 18.2811C120.308 17.8697 119.569 17.5861 118.682 17.5861C116.433 17.5861 115.197 19.1526 115.197 21.1207C115.197 23.2545 116.628 24.6543 118.712 24.6543C119.598 24.6543 120.465 24.3414 120.893 23.8813L120.435 22.9806L120.434 22.9795ZM109.072 16.0294C109.14 16.8619 109.851 17.4291 111.019 17.4291C112.09 17.4291 112.888 16.8716 112.917 16.0294H111.798C111.758 16.4505 111.456 16.5966 111.019 16.5966C110.532 16.5966 110.269 16.4115 110.191 16.0294H109.071H109.072ZM109.043 24.546L112.617 19.6809V24.546H113.814V17.6944H112.762L109.19 22.5692V17.6944H107.992V24.546H109.044H109.043ZM101.332 24.546L104.906 19.6809V24.546H106.104V17.6944H105.052L101.478 22.5692V17.6944H100.28V24.546H101.332ZM98.6351 22.9795C98.1678 23.3411 97.5928 23.5273 97.0189 23.5273C95.6266 23.5273 94.6629 22.5487 94.6629 21.1197C94.6629 19.6906 95.618 18.712 96.8832 18.712C97.5648 18.712 98.0128 18.8971 98.4219 19.1721L98.9582 18.2811C98.5102 17.8697 97.7705 17.5861 96.8843 17.5861C94.636 17.5861 93.3988 19.1526 93.3988 21.1207C93.3988 23.2545 94.8298 24.6543 96.9134 24.6543C97.7996 24.6543 98.6664 24.3414 99.0949 23.8813L98.6373 22.9806L98.6351 22.9795ZM92.2585 22.9795C91.7912 23.3411 91.2162 23.5273 90.6423 23.5273C89.25 23.5273 88.2863 22.5487 88.2863 21.1197C88.2863 19.6906 89.2403 18.712 90.5066 18.712C91.1882 18.712 91.6361 18.8971 92.0453 19.1721L92.5815 18.2811C92.1336 17.8697 91.3928 17.5861 90.5077 17.5861C88.2583 17.5861 87.0222 19.1526 87.0222 21.1207C87.0222 23.2545 88.4543 24.6543 90.5378 24.6543C91.424 24.6543 92.2897 24.3414 92.7194 23.8813L92.2617 22.9806L92.2585 22.9795ZM80.3117 21.1197C80.3117 19.7004 81.2851 18.712 82.5902 18.712C83.8952 18.712 84.8783 19.7004 84.8783 21.1197C84.8783 22.5389 84.0223 23.5273 82.5902 23.5273C81.3153 23.5273 80.3117 22.4891 80.3117 21.1197ZM79.0454 21.1197C79.0454 23.2534 80.5648 24.6532 82.5891 24.6532C84.6134 24.6532 86.1435 23.1755 86.1435 21.1197C86.1435 19.0638 84.6156 17.585 82.5891 17.585C80.5626 17.585 79.0454 19.132 79.0454 21.1197ZM75.6482 18.7997C76.4655 18.7997 76.9038 19.1515 76.9038 19.866C76.9038 20.6292 76.3481 20.9724 75.6375 20.9724C75.365 20.9724 75.0732 20.9529 74.79 20.9237V18.8192C75.1109 18.8094 75.4038 18.7997 75.6472 18.7997M74.7911 24.546V22.0702C75.0829 22.0994 75.4727 22.0994 75.6773 22.0994C77.3032 22.0994 78.17 21.0417 78.17 19.8779C78.17 18.7142 77.5369 17.676 75.5319 17.676C75.0549 17.676 73.9739 17.6954 73.5938 17.6954V24.5471H74.7911V24.546Z" fill="white"/>
<path d="M78.7956 34.3694C78.7956 32.2356 77.3743 30.8456 75.3683 30.8456C74.3259 30.8456 73.4979 31.1887 73.0209 31.6001L73.4882 32.5008C73.9652 32.1382 74.5402 31.9725 75.0851 31.9725C76.3707 31.9725 77.3054 32.6091 77.539 33.7534H74.5015V34.8793H77.5681C77.3635 36.1415 76.3804 36.7878 75.2121 36.7878C74.5014 36.7878 73.8877 36.5237 73.4591 36.1903L72.9434 37.1981C73.4204 37.6095 74.2872 37.9126 75.2315 37.9126C77.413 37.9126 78.7945 36.5129 78.7945 34.3694M85.6794 37.8055L82.7 34.1442L85.5039 30.9527H84.0632L81.3756 34.2026V30.9527H80.1782V37.8044H81.3756V34.2708L84.1601 37.8044H85.6783L85.6794 37.8055ZM87.4808 34.3802C87.4808 32.8927 88.4359 31.9725 89.7012 31.9725C90.3827 31.9725 90.8307 32.1576 91.2399 32.4326L91.7761 31.5417C91.3282 31.1303 90.5884 30.8466 89.7022 30.8466C87.4539 30.8466 86.2167 32.4131 86.2167 34.3813C86.2167 36.515 87.6477 37.9148 89.7313 37.9148C90.6175 37.9148 91.4843 37.6019 91.9128 37.1418L91.4552 36.2411C90.9879 36.6027 90.4129 36.7889 89.839 36.7889C88.4467 36.7889 87.483 35.8103 87.483 34.3813M97.3344 37.8055H98.5318V30.9538H93.0984V37.8055H94.2957V32.0786H97.3333V37.8055H97.3344ZM105.746 34.3802C105.746 35.7312 104.89 36.7878 103.458 36.7878C102.183 36.7878 101.18 35.7496 101.18 34.3802C101.18 33.0107 102.153 31.9725 103.458 31.9725C104.763 31.9725 105.746 32.9609 105.746 34.3802ZM107.012 34.3802C107.012 32.2464 105.483 30.8456 103.458 30.8456C101.433 30.8456 99.9143 32.3926 99.9143 34.3802C99.9143 36.5139 101.434 37.9137 103.458 37.9137C105.482 37.9137 107.012 36.436 107.012 34.3802ZM111.705 33.1266C111.705 33.8898 111.149 34.233 110.439 34.233C110.166 34.233 109.874 34.2135 109.591 34.1842V32.0797C109.912 32.07 110.205 32.0602 110.448 32.0602C111.266 32.0602 111.704 32.412 111.704 33.1266M112.97 33.1363C112.97 32.0104 112.337 30.9343 110.332 30.9343C109.855 30.9343 108.774 30.9538 108.394 30.9538V37.8055H109.591V35.3296C109.883 35.3588 110.273 35.3588 110.477 35.3588C112.103 35.3588 112.97 34.3012 112.97 33.1374M116.913 32.0797H119.123V30.9538H113.505V32.0797H115.715V37.8066H116.912V32.0797H116.913ZM124.479 37.8055H125.666V30.9538H124.479V33.7534H121.363V30.9538H120.165V37.8055H121.363V34.8782H124.479V37.8055ZM130.739 35.4952C130.739 36.2985 130.272 36.6991 129.395 36.6991C129.162 36.6991 128.967 36.6796 128.752 36.6698V34.4289C129.025 34.3997 129.229 34.3802 129.415 34.3802C130.252 34.3802 130.739 34.7612 130.739 35.4963M132.004 35.4671C132.004 34.1258 131.197 33.2543 129.512 33.2543C129.317 33.2543 129.054 33.264 128.752 33.303V30.9538H127.555V37.8055C127.953 37.8055 128.607 37.825 129.249 37.825C130.991 37.825 132.004 36.9145 132.004 35.466M132.892 37.8055H134.079V30.9538H132.892V37.8055ZM140.894 29.2899H139.774C139.734 29.711 139.434 29.8572 138.996 29.8572C138.509 29.8572 138.245 29.672 138.168 29.2899H137.048C137.116 30.1224 137.826 30.6897 138.996 30.6897C140.067 30.6897 140.865 30.1321 140.894 29.2899ZM140.593 37.8055H141.79V30.9538H140.738L137.164 35.8287V30.9538H135.967V37.8055H137.019L140.593 32.9403V37.8055Z" fill="white"/>
<path d="M152.316 39.0299H153.436V36.6807H152.511V30.9538H151.313V36.6807H148.324V30.9538H147.127V37.8055H152.316V39.0288V39.0299ZM154.623 37.8055H158.663V36.6796H155.821V34.9074H158.274V33.7815H155.821V32.0786H158.567V30.9527H154.623V37.8044V37.8055ZM164.535 37.8055H165.723V30.9538H164.535V33.7534H161.419V30.9538H160.222V37.8055H161.419V34.8782H164.535V37.8055ZM170.172 32.0797H172.383V30.9538H166.764V32.0797H168.975V37.8066H170.172V32.0797ZM176.735 33.1266C176.735 33.8898 176.18 34.233 175.47 34.233C175.197 34.233 174.904 34.2135 174.622 34.1842V32.0797C174.943 32.07 175.236 32.0602 175.478 32.0602C176.296 32.0602 176.734 32.4131 176.734 33.1266M178 33.1363C178 32.0104 177.367 30.9343 175.361 30.9343C174.884 30.9343 173.803 30.9538 173.424 30.9538V37.8055H174.621V35.3296C174.913 35.3588 175.303 35.3588 175.507 35.3588C177.133 35.3588 178 34.3012 178 33.1374" fill="white"/>
<path d="M37.2261 12.0032L33.9817 13.219L33.4014 12L37.2261 12.0032Z" fill="#1C75BC"/>
<path d="M33.4008 12L33.9812 13.2179L31.2031 14.2529L33.4008 12Z" fill="#ED1C24"/>
<path d="M47.0586 12.2869L49.7193 16.0315L39.7236 15.1254L47.0586 12.2869Z" fill="#1C75BC"/>
<path d="M63.4512 12.0033L59.48 13.5752L57.3545 12.0033H63.4512Z" fill="#1C75BC"/>
<path d="M31.2028 18.3385L28.0382 22.1449L24.0811 21.7194L31.2028 18.3385Z" fill="#1C75BC"/>
<path d="M28.0383 22.146L24.0801 26.8401V21.7195L28.0383 22.146Z" fill="#ED1C24"/>
<path d="M63.512 12.0033L61.8925 15.3506L59.4795 13.5752L63.4506 12.0033H63.512Z" fill="#ED1C24"/>
<path d="M16.2642 29.8821L15.9347 33.6928L10.0146 36.9178L16.2642 29.8821Z" fill="#1C75BC"/>
<path d="M15.9352 33.6927L15.4905 38.0079L10 36.9318L15.9352 33.6927Z" fill="#ED1C24"/>
<path d="M51.8166 19.4915L57.4201 26.3323L48.0898 25.3407L51.8166 19.4915Z" fill="#1C75BC"/>
<path d="M57.419 26.3334L43.8193 32.0332L48.0887 25.3407L57.419 26.3334Z" fill="#ED1C24"/>
<path d="M37.1736 34.4939L24.0273 40.0357V31.506L37.1736 34.4939Z" fill="#ED1C24"/>
<path d="M53.2604 37.0001L49.4174 44.9062L47.377 39.4521L53.2604 37.0001Z" fill="#1C75BC"/>
<path d="M47.3769 39.4521L49.4174 44.9073L39.4971 42.8807L47.3769 39.4521Z" fill="#ED1C24"/>
<path d="M33.1777 22.8745L40.9068 19.84L43.0291 23.8867L33.1777 22.8745Z" fill="#1C75BC"/>
<path d="M33.1777 22.8745L43.0291 23.8868L34.402 27.3824L33.1777 22.8745Z" fill="#ED1C24"/>
</g>
<defs>
<clipPath id="clip0_2014_2168">
<rect width="168" height="32.9072" fill="white" transform="translate(10 12)"/>
</clipPath>
</defs>
</svg>
