<svg width="188" height="56" viewBox="0 0 188 56" fill="none" xmlns="http://www.w3.org/2000/svg">
<path d="M24.78 45.3015C24.804 45.3135 24.828 45.3255 24.8521 45.3255C24.8641 45.3375 24.8881 45.3375 24.9241 45.3496C25.1765 45.4217 25.4408 45.4697 25.7292 45.4697H27.135H32.6261H39.8474L30.5834 36.362C28.8652 38.0321 27.7358 39.1375 26.9067 39.9546C26.1617 40.6755 25.6571 41.1802 25.1885 41.6488C24.5997 42.2255 24.2032 42.61 24.2032 42.61C23.9148 42.9104 23.7346 43.343 23.7346 43.7875C23.7226 44.4844 24.1672 45.0492 24.78 45.3015Z" fill="#FF4F12"/>
<path d="M23.7218 43.7876C23.7218 43.343 23.902 42.9104 24.1904 42.6101C24.1904 42.6101 24.5869 42.2256 25.1757 41.6488C25.6443 41.1802 26.1489 40.6876 26.8939 39.9546C27.723 39.1376 28.8644 38.0322 30.5706 36.362C31.0753 35.8694 31.628 35.3287 32.2408 34.7399C32.2528 34.7279 32.2648 34.7159 32.2768 34.7039C35.0524 32.0004 38.9935 28.1434 44.785 22.4841L32.0726 10L24.8753 17.0651C22.7245 19.1798 23.0129 20.5616 23.0129 23.3973V42.8023C23.0129 43.9438 23.7458 44.917 24.7792 45.3015C24.1664 45.0492 23.7218 44.4845 23.7218 43.7876Z" fill="#7800FF"/>
<path d="M161.587 44.1241V40.6636H160.614V45.4698H161.683L164.026 42.0094V45.4698H164.999V40.6636H163.93L161.587 44.1241ZM163.882 38.9454H163.197C163.197 39.1857 163.053 39.3659 162.812 39.3659C162.572 39.3659 162.44 39.1977 162.44 38.9454H161.755C161.755 39.5582 162.176 39.9907 162.824 39.9907C163.437 39.9907 163.882 39.5462 163.882 38.9454ZM158.955 42.49C158.871 41.733 158.283 41.3125 157.538 41.3125C156.793 41.3125 156.216 41.8291 156.048 42.49H158.955ZM159.929 42.9345V43.283H156.024C156.096 44.1361 156.672 44.7489 157.538 44.7489C158.295 44.7489 158.619 44.4245 158.931 43.9919L159.724 44.4125C159.268 45.1694 158.595 45.614 157.514 45.614C156.168 45.614 155.038 44.5927 155.038 43.0787C155.038 41.5768 156.168 40.5435 157.562 40.5435C158.979 40.5315 159.929 41.5287 159.929 42.9345ZM150.917 41.5648H152.455V45.4698H153.476V41.5648H155.002V40.6636H150.917V41.5648ZM148.646 44.6768C147.781 44.6768 147.144 44.052 147.144 43.0667C147.144 42.0814 147.805 41.4566 148.646 41.4566C149.175 41.4566 149.619 41.697 149.944 42.2256L150.797 41.745C150.436 40.988 149.703 40.5314 148.646 40.5314C147.276 40.5314 146.099 41.5528 146.099 43.0667C146.099 44.5807 147.192 45.602 148.646 45.602C149.667 45.602 150.364 45.1334 150.833 44.3524L150.016 43.8958C149.691 44.3524 149.331 44.6768 148.646 44.6768ZM144.669 43.0667C144.669 42.0814 143.936 41.4446 143.095 41.4446C142.242 41.4446 141.509 42.0694 141.509 43.0667C141.509 44.052 142.242 44.6888 143.095 44.6888C143.948 44.6768 144.669 44.052 144.669 43.0667ZM145.714 43.0667C145.714 44.7249 144.429 45.602 143.095 45.602C141.749 45.602 140.476 44.7249 140.476 43.0667C140.476 41.4086 141.761 40.5314 143.095 40.5314C144.429 40.5314 145.714 41.4086 145.714 43.0667ZM138.769 42.538H136.486V40.6756H135.465V45.4818H136.486V43.4152H138.769V45.4818H139.791V40.6756H138.769V42.538ZM134.924 40.6636H133.615L132.053 42.526V40.6636H131.031V42.526L129.469 40.6636H128.16L130.166 42.9225L128.124 45.4698H129.361L131.031 43.3551V45.4698H132.053V43.3671L133.723 45.4698H134.96L132.918 42.9225L134.924 40.6636ZM126.85 43.0667C126.85 42.0814 126.117 41.4446 125.276 41.4446C124.423 41.4446 123.69 42.0694 123.69 43.0667C123.69 44.052 124.423 44.6888 125.276 44.6888C126.117 44.6768 126.85 44.052 126.85 43.0667ZM127.883 43.0667C127.883 44.7249 126.598 45.602 125.264 45.602C123.918 45.602 122.645 44.7249 122.645 43.0667C122.645 41.4086 123.93 40.5314 125.264 40.5314C126.61 40.5314 127.883 41.4086 127.883 43.0667ZM119.136 44.3163L117.694 40.6636H116.312V45.4698H117.298V42.0574L118.716 45.4698H119.569L120.974 42.0694V45.4698H121.96V40.6636H120.566L119.136 44.3163ZM114.642 42.9345C115.159 42.7423 115.471 42.3698 115.471 41.8171C115.471 41.0962 114.919 40.5314 113.681 40.5314C112.503 40.5314 111.819 41.1202 111.819 41.8772C111.819 42.0935 111.867 42.2497 111.903 42.3458L112.768 42.0694C112.756 42.0334 112.744 41.9733 112.744 41.8652C112.744 41.5768 113.092 41.3365 113.669 41.3365C114.222 41.3365 114.51 41.5648 114.51 41.9252C114.51 42.2977 114.246 42.5741 113.645 42.5741H113.248V43.3791H113.657C114.294 43.3791 114.666 43.6314 114.666 44.052C114.666 44.4966 114.294 44.821 113.597 44.821C113.08 44.821 112.6 44.5807 112.6 44.1001C112.6 43.9919 112.624 43.9198 112.648 43.8477L111.795 43.5714C111.747 43.6795 111.674 43.8958 111.674 44.1121C111.674 44.9772 112.371 45.614 113.597 45.614C114.943 45.614 115.664 44.9411 115.664 44.088C115.664 43.4632 115.243 43.0907 114.642 42.9345ZM110.185 43.0667C110.185 42.0814 109.452 41.4446 108.61 41.4446C107.757 41.4446 107.024 42.0694 107.024 43.0667C107.024 44.052 107.757 44.6888 108.61 44.6888C109.452 44.6768 110.185 44.052 110.185 43.0667ZM111.218 43.0667C111.218 44.7249 109.932 45.602 108.598 45.602C107.253 45.602 105.979 44.7249 105.979 43.0667C105.979 41.4086 107.265 40.5314 108.598 40.5314C109.932 40.5314 111.218 41.4086 111.218 43.0667ZM104.633 44.0159C104.633 43.6074 104.369 43.3551 103.84 43.3551H102.627V44.6768H103.84C104.357 44.6768 104.633 44.4245 104.633 44.0159ZM102.627 42.5861H103.768C104.225 42.5861 104.501 42.4059 104.501 42.0094C104.501 41.6249 104.225 41.4446 103.78 41.4446H102.627V42.5861ZM105.643 44.076C105.643 44.8931 104.922 45.4578 103.9 45.4578H101.617V40.6516H103.84C104.886 40.6516 105.462 41.1803 105.462 41.8411C105.462 42.3939 105.162 42.7183 104.717 42.9105C105.246 43.0787 105.643 43.4632 105.643 44.076ZM94.8167 44.1241V40.6636H93.8434V45.4698H94.9128L97.2558 42.0094V45.4698H98.2291V40.6636H97.1597L94.8167 44.1241ZM89.5058 44.1241V40.6636H88.5326V45.4698H89.602L91.945 42.0094V45.4698H92.9182V40.6636H91.8489L89.5058 44.1241ZM84.6756 45.4698H85.6969V41.5648H87.8717V40.6636H84.6876V45.4698H84.6756ZM82.9574 43.0667C82.9574 42.0814 82.2245 41.4446 81.3834 41.4446C80.5303 41.4446 79.7973 42.0694 79.7973 43.0667C79.7973 44.052 80.5303 44.6888 81.3834 44.6888C82.2245 44.6768 82.9574 44.052 82.9574 43.0667ZM83.9907 43.0667C83.9907 44.7249 82.7051 45.602 81.3713 45.602C80.0256 45.602 78.752 44.7249 78.752 43.0667C78.752 41.4086 80.0376 40.5314 81.3713 40.5314C82.7171 40.5314 83.9907 41.4086 83.9907 43.0667ZM74.2822 43.5233C74.2221 44.4485 74.0779 44.6408 73.7535 44.6408C73.5372 44.6408 73.4051 44.5807 73.4051 44.5807V45.4578C73.4051 45.4578 73.5973 45.5299 73.8136 45.5299C74.7869 45.5299 75.1473 44.9291 75.2194 43.5594L75.3276 41.5648H77.0578V45.4698H78.0791V40.6636H74.4384L74.2822 43.5233ZM72.2636 43.0667C72.2636 42.0814 71.5307 41.4446 70.6896 41.4446C69.8365 41.4446 69.1035 42.0694 69.1035 43.0667C69.1035 44.052 69.8365 44.6888 70.6896 44.6888C71.5307 44.6768 72.2636 44.052 72.2636 43.0667ZM73.2969 43.0667C73.2969 44.7249 72.0113 45.602 70.6776 45.602C69.3318 45.602 68.0582 44.7249 68.0582 43.0667C68.0582 41.4086 69.3438 40.5314 70.6776 40.5314C72.0113 40.5314 73.2969 41.4086 73.2969 43.0667ZM66.364 42.538H64.0811V40.6756H63.0597V45.4818H64.0811V43.4152H66.364V45.4818H67.3853V40.6756H66.364V42.538ZM62.507 40.6636H61.3415L60.4043 42.1295L59.4671 40.6636H58.3136L59.8516 42.9225L58.0613 45.4698H59.2508L60.4043 43.7035L61.5458 45.4698H62.7233L61.0051 42.8985L62.507 40.6636ZM54.3125 42.49H57.2202C57.1361 41.733 56.5473 41.3125 55.8024 41.3125C55.0574 41.3125 54.4807 41.8291 54.3125 42.49ZM57.1962 43.9799L57.9892 44.4004C57.5326 45.1574 56.8597 45.602 55.7783 45.602C54.4206 45.602 53.3032 44.5807 53.3032 43.0667C53.3032 41.5648 54.4326 40.5314 55.8264 40.5314C57.2442 40.5314 58.1935 41.5287 58.1935 42.9345V43.283H54.2884C54.3605 44.1361 54.9373 44.7489 55.8024 44.7489C56.5714 44.7369 56.8838 44.4125 57.1962 43.9799ZM54.1803 38.6931H48.8574V39.6543H50.9842V45.4698H52.0535V39.6543H54.1803V38.6931ZM161.527 25.2838L158.643 32.4811L155.759 25.2838H152.287V35.533H154.81V29.0446L157.61 35.533H159.676L162.476 29.0446V35.533H164.999V25.2838H161.527ZM142.218 30.4264C142.218 32.3128 143.672 33.4063 145.234 33.4063C146.796 33.4063 148.25 32.3128 148.25 30.4264C148.25 28.54 146.796 27.4466 145.234 27.4466C143.672 27.4466 142.218 28.54 142.218 30.4264ZM139.514 30.4264C139.514 26.8218 142.362 25.0074 145.234 25.0074C148.105 25.0074 150.953 26.8338 150.953 30.4264C150.953 34.0311 148.105 35.8454 145.234 35.8454C142.362 35.8454 139.514 34.0311 139.514 30.4264ZM88.6407 35.557H91.2962V27.5667H94.4202V25.2958H85.5167V27.5667H88.6407V35.557ZM120.638 29.0567H126.189C125.937 27.771 124.94 26.99 123.462 26.99C122.08 26.99 121.022 27.9032 120.638 29.0567ZM118.043 30.4264C118.043 27.1822 120.506 25.0074 123.546 25.0074C126.538 25.0074 128.652 27.1462 128.652 30.138V31.0512H120.59C120.758 32.6253 121.9 33.6225 123.462 33.6225C124.879 33.6225 125.468 33.0218 126.117 32.2167L128.232 33.2501C127.174 35.0043 125.721 35.8574 123.426 35.8574C120.518 35.8454 118.043 33.6706 118.043 30.4264ZM103.288 29.0567C103.035 27.771 102.038 26.99 100.572 26.99C99.1783 26.99 98.121 27.9032 97.7485 29.0567H103.288ZM105.751 30.138V31.0512H97.6884C97.8566 32.6253 98.9981 33.6225 100.56 33.6225C101.978 33.6225 102.567 33.0218 103.216 32.2167L105.33 33.2501C104.273 35.0043 102.819 35.8574 100.524 35.8574C97.6163 35.8574 95.1411 33.6826 95.1411 30.4384C95.1411 27.1942 97.6043 25.0194 100.644 25.0194C103.636 24.9954 105.751 27.1342 105.751 30.138ZM107.337 35.6772C109.596 35.6772 110.437 34.2473 110.653 31.2074L110.905 27.6268H113.897V35.533H116.553V25.2838H108.622L108.178 31.0993C108.046 32.6733 107.733 33.0218 107.181 33.0218C106.808 33.0218 106.628 32.9857 106.376 32.9136L106.388 35.569C106.4 35.5811 106.736 35.6772 107.337 35.6772ZM79.9055 35.8454C82.1403 35.8454 83.6423 34.8481 84.6996 33.0939L82.5008 31.9163C81.864 32.7815 81.1911 33.4063 79.8814 33.4063C78.2834 33.4063 77.0938 32.2648 77.0938 30.4264C77.0938 28.6001 78.3194 27.4466 79.8814 27.4466C80.8307 27.4466 81.6477 27.8791 82.3086 28.8524L84.5915 27.5667C83.8345 25.9687 82.1884 24.9954 79.9055 24.9954C76.9256 24.9954 74.4024 27.1462 74.4024 30.4144C74.4024 33.6946 76.8055 35.8454 79.9055 35.8454ZM70.4012 30.4264C70.4012 28.54 68.9473 27.4466 67.3853 27.4466C65.8233 27.4466 64.3694 28.54 64.3694 30.4264C64.3694 32.3128 65.8233 33.4063 67.3853 33.4063C68.9473 33.4063 70.4012 32.3128 70.4012 30.4264ZM67.3853 35.8454C64.5136 35.8454 61.6659 34.019 61.6659 30.4264C61.6659 26.8218 64.5136 25.0074 67.3853 25.0074C70.257 25.0074 73.1047 26.8338 73.1047 30.4264C73.1047 34.0311 70.257 35.8454 67.3853 35.8454ZM51.645 28.0594H55.49C57.4245 28.0594 58.3136 27.1462 58.3136 25.7764C58.3136 24.4067 57.4245 23.4935 55.49 23.4935H51.645V28.0594ZM51.645 35.557H48.8574V21.0663H55.5621C58.8904 21.0663 61.0892 22.7485 61.0892 25.7884C61.0892 28.8284 58.8904 30.5105 55.5621 30.5105H51.633V35.557H51.645ZM135.021 30.0539L139.959 35.557H136.751L132.93 31.3156V35.557H130.274V25.2838H132.93V29.0086L136.691 25.2838H139.839L135.021 30.0539Z" fill="white"/>
</svg>
