<svg width="188" height="56" viewBox="0 0 188 56" fill="none" xmlns="http://www.w3.org/2000/svg">
<path d="M106.596 2.87817H73.5342V17.6577H106.596V2.87817Z" fill="url(#paint0_linear_499_86422)"/>
<path d="M97.5292 2.87817H82.6289V36.01H97.5292V2.87817Z" fill="url(#paint1_linear_499_86422)"/>
<path d="M97.5292 2.87817H82.6289V17.6577H97.5292V2.87817Z" fill="url(#paint2_linear_499_86422)"/>
<path d="M77.9621 36.01L58.6479 2.87817L39.5024 36.01H77.9621Z" fill="url(#paint3_linear_499_86422)"/>
<path d="M59.0556 36.01L39.7414 2.87817L20.5959 36.01H59.0556Z" fill="url(#paint4_linear_499_86422)"/>
<path d="M59.0415 36.0101L49.2298 19.165L39.5024 36.0101H59.0415Z" fill="url(#paint5_linear_499_86422)"/>
<path d="M29.4941 50.4826H28.5804V44.942L26.5562 50.4826H25.6144L23.5902 44.942V50.4826H22.7046V44.2302H24.2227L26.1345 49.6033L28.004 44.2302H29.5222V50.4826H29.4941Z" fill="white"/>
<path d="M35.2576 50.4826H31.3076V44.2302H35.2576V44.9839H32.2213V46.8819H34.9905V47.6076H32.2213V49.7289H35.2576V50.4826Z" fill="white"/>
<path d="M42.6655 51.878H41.7518V50.4824H37.0287V51.878H36.115V49.7427H36.8178C37.6612 48.4727 37.7596 46.7282 37.8299 44.8023L37.844 44.244H41.8643V49.7427H42.6655V51.878ZM40.9506 49.7427V44.9977H38.6874C38.6874 45.0814 38.6733 45.3745 38.6733 45.4582C38.6031 47.0073 38.3922 48.6402 37.7596 49.7567H40.9506V49.7427Z" fill="white"/>
<path d="M49.244 50.4826H48.3303V45.4444L44.9004 50.4826H43.8743V44.2302H44.788V49.2684L48.2178 44.2302H49.244V50.4826Z" fill="white"/>
<path d="M54.8669 48.8216H51.8447L51.1559 50.4964H50.2422L52.9411 44.244H53.8548L56.4975 50.4964H55.5557L54.8669 48.8216ZM52.1539 48.082H54.5858L53.405 45.1512H53.3628L52.1539 48.082Z" fill="white"/>
<path d="M62.1481 50.4826H61.2344V44.9839H59.1399V44.2302H64.2285V44.9839H62.1481V50.4826Z" fill="white"/>
<path d="M69.2891 50.4826H65.3391V44.2302H69.2891V44.9839H66.2528V46.8819H69.022V47.6076H66.2528V49.7289H69.2891V50.4826Z" fill="white"/>
<path d="M76.0081 50.4826H75.0944V44.9839H72.6766C72.6485 48.5566 72.4798 50.5524 70.7368 50.5524C70.54 50.5524 70.4697 50.5384 70.3291 50.4965V49.715C70.4416 49.7429 70.5118 49.7429 70.6243 49.7429C71.3553 49.7429 71.7067 48.9195 71.7488 44.9559L71.7629 44.2302H76.0081V50.4826Z" fill="white"/>
<path d="M81.7716 50.4826H77.8357V44.2302H81.7857V44.9839H78.7494V46.8819H81.5186V47.6076H78.7494V49.7289H81.7857V50.4826H81.7716Z" fill="white"/>
<path d="M84.2455 47.0912L87.3521 44.2302H88.4907L85.2576 47.161L88.7015 50.4826H87.4786L84.2455 47.3006V50.4826H83.3318V44.2302H84.2455V47.0912Z" fill="white"/>
<path d="M88.8 47.3563C88.8 45.2908 90.0371 44.1464 91.9628 44.1464C94.1276 44.1464 95.1959 45.3885 95.1959 47.3563C95.1959 49.5474 93.9308 50.5662 92.005 50.5662C89.9527 50.5801 88.8 49.4218 88.8 47.3563ZM94.226 47.3563C94.226 45.5838 93.4388 44.886 91.9628 44.886C90.6274 44.886 89.77 45.5978 89.77 47.3563C89.77 49.0729 90.6134 49.8265 92.0894 49.8265C93.481 49.8265 94.226 49.0589 94.226 47.3563Z" fill="white"/>
<path d="M103.504 50.4826H102.59V44.942L100.566 50.4826H99.6239L97.5997 44.942V50.4826H96.686V44.2302H98.2042L100.116 49.6033L101.985 44.2302H103.504V50.4826Z" fill="white"/>
<defs>
<linearGradient id="paint0_linear_499_86422" x1="73.5315" y1="10.2684" x2="128.578" y2="10.2684" gradientUnits="userSpaceOnUse">
<stop stop-color="#34BF7F"/>
<stop offset="1" stop-color="#10A3B2"/>
</linearGradient>
<linearGradient id="paint1_linear_499_86422" x1="82.6299" y1="19.4409" x2="111.551" y2="19.4409" gradientUnits="userSpaceOnUse">
<stop stop-color="#30B980"/>
<stop offset="1" stop-color="#10A3B2"/>
</linearGradient>
<linearGradient id="paint2_linear_499_86422" x1="82.6299" y1="10.2684" x2="97.5344" y2="10.2684" gradientUnits="userSpaceOnUse">
<stop stop-color="#0C5B82"/>
<stop offset="1" stop-color="#10A3B2"/>
</linearGradient>
<linearGradient id="paint3_linear_499_86422" x1="39.5048" y1="19.4409" x2="77.9555" y2="19.4409" gradientUnits="userSpaceOnUse">
<stop stop-color="#30B980"/>
<stop offset="1" stop-color="#10A3B2"/>
</linearGradient>
<linearGradient id="paint4_linear_499_86422" x1="20.5968" y1="19.4413" x2="59.0485" y2="19.4413" gradientUnits="userSpaceOnUse">
<stop stop-color="#30B980"/>
<stop offset="1" stop-color="#10A3B2"/>
</linearGradient>
<linearGradient id="paint5_linear_499_86422" x1="39.5048" y1="27.5856" x2="59.048" y2="27.5856" gradientUnits="userSpaceOnUse">
<stop stop-color="#0C5B82"/>
<stop offset="1" stop-color="#10A3B2"/>
</linearGradient>
</defs>
</svg>
