<svg width="174" height="26" viewBox="0 0 174 26" fill="none" xmlns="http://www.w3.org/2000/svg">
<path d="M117.842 -6.10352e-05C118.224 0.0915734 118.621 0.167936 119.003 0.274843C120.057 0.565018 120.698 1.237 120.774 2.35189C120.805 2.84061 120.805 3.3446 120.729 3.84858C120.622 4.64275 120.148 5.14674 119.385 5.3911C119.232 5.43691 119.079 5.48273 118.881 5.54382C120.5 5.92563 120.988 6.52125 121.034 8.14013C121.049 8.50667 121.034 8.88848 120.973 9.23974C120.805 10.3088 120.164 10.9655 119.171 11.3015C118.087 11.6681 116.956 11.6986 115.826 11.6375C114.696 11.5917 113.566 11.4542 112.359 11.3473C112.527 10.5074 112.68 9.77428 112.833 9.07175C113.948 9.13284 115.032 9.22447 116.116 9.25501C116.575 9.27029 117.048 9.17865 117.491 9.07175C118.01 8.93429 118.224 8.55249 118.209 7.95686C118.193 7.36124 117.964 6.97943 117.445 6.87252C117.063 6.78089 116.651 6.78089 116.254 6.76561C115.75 6.75034 115.231 6.76561 114.681 6.76561V4.52057C115.093 4.52057 115.521 4.52057 115.948 4.52057C116.345 4.5053 116.758 4.5053 117.155 4.45948C117.751 4.38312 118.01 4.09294 118.041 3.51259C118.071 2.93224 117.842 2.55043 117.247 2.50461C116.208 2.42825 115.169 2.4588 114.116 2.47407C113.734 2.47407 113.352 2.58098 112.909 2.64207C112.741 1.90899 112.588 1.17591 112.42 0.397022C113.23 0.25957 113.994 0.137391 114.757 0.0152117H117.842V-6.10352e-05Z" fill="white"/>
<path d="M94.459 25.4133C94.2451 25.3522 94.0313 25.2911 93.8175 25.2453C92.1375 24.9246 91.099 23.9166 90.7019 22.2672C90.2743 20.5261 90.2591 18.7545 90.6409 16.9982C91.0532 15.0586 92.1223 14.1117 94.1535 13.8368C95.6502 13.623 97.1469 13.7452 98.613 14.0659C98.7047 14.0812 98.7963 14.127 98.9185 14.1576C98.7505 14.9059 98.5978 15.639 98.4451 16.311C97.4829 16.2499 96.5513 16.1735 95.6349 16.143C95.3448 16.1277 95.0546 16.1735 94.7797 16.2346C94.0466 16.3721 93.5579 16.7997 93.3899 17.5328C93.0844 18.8462 93.0844 20.1749 93.3899 21.5036C93.5732 22.313 94.1077 22.7712 94.9171 22.8934C96.0778 23.0766 97.2233 22.985 98.4298 22.6948C98.5978 23.4584 98.7658 24.2221 98.9338 25.0315C98.2465 25.1537 97.6051 25.2759 96.9789 25.3828H94.459V25.4133Z" fill="white"/>
<path d="M173.8 16.3262H170.089V25.1689H167.492V16.3262H163.781V14.0048H173.8V16.3262Z" fill="white"/>
<path d="M152.664 25.1994V14.0505H155.199V21.3813C155.23 21.3965 155.276 21.3965 155.306 21.4118C155.383 21.2896 155.474 21.1674 155.551 21.03C156.833 18.8155 158.116 16.6163 159.384 14.3865C159.537 14.1116 159.689 13.9894 160.01 14.0047C160.911 14.0352 161.812 14.02 162.744 14.02V25.1688H160.193V18.1435C160.163 18.1435 160.132 18.1282 160.102 18.1282C159.521 19.182 158.956 20.2206 158.361 21.2591C157.673 22.4503 156.971 23.611 156.299 24.8023C156.131 25.0772 155.963 25.2146 155.612 25.1994C154.634 25.1841 153.672 25.1994 152.664 25.1994Z" fill="white"/>
<path d="M90.9609 0.289978H93.4962V8.99524H97.6655V0.289978H100.262V8.99524H102.232C102.11 10.6447 102.003 12.2177 101.881 13.8519H99.5746V11.4236H90.9609V0.289978Z" fill="white"/>
<path d="M106.48 20.465C106.068 19.121 105.67 17.8076 105.243 16.4942C105.212 16.4178 105.09 16.2956 105.014 16.3109C104.907 16.3262 104.754 16.4025 104.724 16.4942C104.25 17.8076 103.807 19.121 103.334 20.4803H106.48V20.465ZM111.031 25.1994C110.145 25.1994 109.29 25.2147 108.45 25.1842C108.328 25.1842 108.16 25.0162 108.099 24.894C107.839 24.2831 107.61 23.6722 107.381 23.046C107.289 22.8017 107.167 22.71 106.892 22.71C105.625 22.7253 104.342 22.7253 103.074 22.71C102.784 22.71 102.647 22.8017 102.57 23.0766C102.387 23.7791 102.173 24.4664 101.959 25.1689H99.1797C99.4851 24.2067 99.76 23.2446 100.096 22.313C101.028 19.7014 102.005 17.0898 102.952 14.4782C103.074 14.127 103.242 13.9895 103.639 13.9895C104.678 14.02 105.732 14.0048 106.77 13.9895C107.03 13.9895 107.152 14.0353 107.259 14.3255C108.481 17.8381 109.718 21.3508 110.955 24.8787C110.985 24.9856 111.001 25.0773 111.031 25.1994Z" fill="white"/>
<path d="M128.625 6.68932C128.594 6.5366 128.564 6.41442 128.533 6.29224C128.167 5.14681 127.815 3.9861 127.434 2.85595C127.388 2.73377 127.266 2.62686 127.174 2.51995C127.067 2.62686 126.899 2.7185 126.853 2.84067C126.441 4.00138 126.044 5.17735 125.647 6.35333C125.616 6.44496 125.601 6.55187 125.586 6.68932H128.625ZM133.1 11.4085C132.305 11.4085 131.45 11.4238 130.61 11.3932C130.488 11.3932 130.305 11.2405 130.244 11.1183C129.984 10.5074 129.755 9.89652 129.541 9.27035C129.449 9.026 129.327 8.94964 129.083 8.96491C127.8 8.98018 126.502 8.98018 125.219 8.96491C124.914 8.96491 124.791 9.08709 124.73 9.34672C124.578 9.94234 124.41 10.5227 124.211 11.103C124.165 11.2252 124.028 11.3932 123.921 11.3932C123.081 11.4238 122.256 11.4085 121.34 11.4085C121.661 10.4005 121.951 9.43835 122.271 8.50673C123.203 5.91043 124.165 3.31412 125.097 0.702537C125.219 0.366544 125.372 0.229092 125.754 0.244365C126.823 0.27491 127.876 0.259637 128.945 0.244365C129.175 0.244365 129.327 0.290183 129.404 0.534541C130.641 4.1541 131.863 7.75839 133.1 11.4085Z" fill="white"/>
<path d="M150.783 25.1687H148.233V16.3413H145.438C145.3 17.3035 145.209 18.2962 144.995 19.2583C144.583 21.1063 144.094 22.939 143.636 24.7717C143.559 25.0924 143.391 25.1993 143.055 25.184C142.307 25.1535 141.543 25.1687 140.719 25.1687C141.91 21.5339 142.811 17.8685 142.979 14.0352H150.768V25.1687H150.783Z" fill="white"/>
<path d="M139.573 25.1687H137.038V16.326H134.243C134.06 17.502 133.938 18.6932 133.693 19.8387C133.327 21.5034 132.853 23.1375 132.441 24.7869C132.364 25.0771 132.227 25.1993 131.906 25.184C131.143 25.1535 130.364 25.1687 129.539 25.1687C130.73 21.5186 131.631 17.8685 131.799 14.0352H139.588V25.1687H139.573Z" fill="white"/>
<path d="M128.823 16.3108H123.112V18.2656H127.174V20.4954H123.112V22.9084H128.808V25.1535H120.5V14.0504H128.823V16.3108Z" fill="white"/>
<path d="M146.982 6.06294V9.17852C148.021 9.17852 149.044 9.20906 150.052 9.14797C150.281 9.1327 150.587 8.87307 150.678 8.64398C150.968 7.98727 150.953 7.30001 150.694 6.62802C150.571 6.29203 150.312 6.06294 149.93 6.06294C148.968 6.06294 147.99 6.06294 146.982 6.06294ZM144.355 11.3777V0.289978H146.921V3.84845H147.486C148.571 3.84845 149.64 3.84845 150.724 3.84845C151.992 3.84845 152.954 4.50516 153.381 5.69641C153.855 7.00983 153.824 8.35381 153.397 9.68251C153.076 10.6447 152.373 11.3319 151.35 11.3625C149.044 11.4388 146.723 11.3777 144.355 11.3777Z" fill="white"/>
<path d="M136.566 5.78816C137.558 5.78816 138.505 5.80344 139.452 5.77289C139.88 5.75762 140.216 5.46744 140.246 5.05509C140.307 4.42892 140.323 3.77221 140.216 3.16131C140.17 2.91695 139.788 2.55041 139.544 2.51987C138.566 2.44351 137.574 2.48932 136.55 2.48932V5.78816H136.566ZM134 0.259552H135.329C136.917 0.259552 138.521 0.259552 140.109 0.259552C141.835 0.259552 142.736 0.977356 143.102 2.64205C143.362 3.80275 143.362 4.97872 142.904 6.10888C142.43 7.30013 141.499 7.9263 140.216 7.9263C139.177 7.9263 138.124 7.9263 137.085 7.9263H136.566V11.3779H134V0.259552Z" fill="white"/>
<path d="M105.807 4.53571H109.87V6.73493H105.807V9.14797H111.519V11.393H103.211V0.289978H111.504V2.50448H105.807V4.53571Z" fill="white"/>
<path d="M119.508 14.0504V16.3108H115.842V25.1688H113.215V16.326H109.52V14.0504H119.508Z" fill="white"/>
<path d="M0 14.0809L13.8063 0.305237H21.977L0 22.4502V14.0809Z" fill="#FFD900"/>
<path d="M16.418 14.0809L30.2242 0.305237H38.4102L16.418 22.4502V14.0809Z" fill="#FFD900"/>
<path d="M32.957 14.0809L46.7633 0.305237H54.9493L32.957 22.4502V14.0809Z" fill="#FFD900"/>
<path d="M49.4844 14.0809L63.2906 0.305237H71.4614L49.4844 22.4502V14.0809Z" fill="#FFD900"/>
<path d="M65.9023 14.0809L79.7086 0.305237H87.8946L65.9023 22.4502V14.0809Z" fill="#FFD900"/>
<path d="M0 5.63531V0.305237H5.52861L0 5.63531Z" fill="#FFD900"/>
<path d="M0 22.4503L8.32346 14.0657H16.4178L5.3148 25.2298H0V22.4503Z" fill="#005CA8"/>
<path d="M24.7412 14.0657H32.9577L21.7478 25.2298H13.5312L24.7412 14.0657Z" fill="#005CA8"/>
<path d="M41.2643 14.0657H49.4808L38.2556 25.2298H30.0391L41.2643 14.0657Z" fill="#005CA8"/>
<path d="M57.8349 14.0657H66.0515L54.8263 25.2298H46.625L57.8349 14.0657Z" fill="#005CA8"/>
<path d="M74.2842 14.0657H82.5007L71.2908 25.2298H63.0742L74.2842 14.0657Z" fill="#005CA8"/>
</svg>
