<svg width="188" height="56" viewBox="0 0 188 56" fill="none" xmlns="http://www.w3.org/2000/svg">
<path d="M61.4384 15.294C61.4384 13.5899 62.1523 12.812 63.7957 12.812H68.8202V8.99988H62.5261C58.8992 8.99988 56.9729 10.8925 56.9729 14.4588V17.8399H52.9722V21.8709H56.9729V34.2133H61.4384V21.8709H65.8129V17.8399H61.4384V15.2973V15.294Z" fill="white"/>
<path d="M50.6452 8.99988H46.1797V34.2133H50.6452V8.99988Z" fill="white"/>
<path d="M44.8731 41.6558H21V46.6163H44.8731V41.6558Z" fill="white"/>
<path d="M37.2758 13.2162C36.5955 11.1855 35.8109 9.58252 33.1235 9.58252C30.4361 9.58252 29.601 11.1788 28.8837 13.2162L21.4951 34.2133H26.3916L28.0957 29.2225H37.5216L39.1044 34.2133H44.3141L37.2758 13.2162ZM29.5269 25.0062L32.8743 15.0549H32.9989L36.1611 25.0062H29.5269Z" fill="white"/>
<path d="M82.0619 28.8486V22.9856C82.0619 18.7053 79.3307 16.0079 74.744 16.0079C70.1573 16.0079 67.4868 18.8602 67.2679 21.8372H71.7974C71.9523 21.1873 72.6359 20.0692 74.744 20.0692C76.4817 20.0692 77.5964 20.8741 77.5964 22.9856H73.1613C69.1908 22.9856 66.8335 25.0634 66.8335 28.5388C66.8335 32.0142 69.4097 34.6477 73.1276 34.6477C75.852 34.6477 77.3674 33.3612 78.0275 32.3846C78.6168 33.5633 79.9201 34.2132 81.6241 34.2132H83.1732V30.1822C82.365 30.1822 82.0585 29.8117 82.0585 28.8486M77.5964 27.7003C77.5964 29.7175 76.1685 30.8624 74.3096 30.8624C72.6965 30.8624 71.4236 30.2731 71.4236 28.5354C71.4236 26.7977 72.8211 26.5519 74.0301 26.5519H77.5964V27.7003Z" fill="white"/>
<path d="M151.192 8.99988V34.2133H155.658V26.7102L162.201 34.2133H168L159.908 24.9085L167.441 16.7521H161.767L155.658 23.484V8.99988H151.192Z" fill="white"/>
<path d="M141.793 16.0079C139.22 16.0079 137.577 17.3718 136.769 18.675V16.7521H132.303V34.2132H136.769V23.5446C136.769 21.1267 137.947 20.0086 139.995 20.0086C142.042 20.0086 143.127 21.1267 143.127 23.5446V34.2132H147.592V23.3257C147.592 18.5504 145.575 16.0079 141.793 16.0079Z" fill="white"/>
<path d="M128.397 28.8486V22.9856C128.397 18.7053 125.669 16.0079 121.079 16.0079C116.489 16.0079 113.822 18.8602 113.603 21.8372H118.132C118.287 21.1873 118.971 20.0692 121.079 20.0692C122.817 20.0692 123.931 20.8741 123.931 22.9856H119.496C115.526 22.9856 113.168 25.0634 113.168 28.5388C113.168 32.0142 115.745 34.6477 119.466 34.6477C122.19 34.6477 123.706 33.3612 124.366 32.3846C124.955 33.5633 126.258 34.2132 127.962 34.2132H129.512V30.1822C128.707 30.1822 128.393 29.8117 128.393 28.8486M123.931 27.7003C123.931 29.7175 122.504 30.8624 120.645 30.8624C119.031 30.8624 117.759 30.2731 117.759 28.5354C117.759 26.7977 119.156 26.5519 120.365 26.5519H123.931V27.7003Z" fill="white"/>
<path d="M107.06 21.4062C108.733 20.6619 110.256 18.9242 110.256 16.476C110.256 12.3507 107.558 9.86871 103.029 9.86871H91.4307V34.2132H102.625C107.834 34.2132 110.781 31.6404 110.781 27.1412C110.781 23.9454 108.952 22.1168 107.06 21.4028M96.051 14.1187H102.5C104.423 14.1187 105.447 15.0178 105.447 16.8464C105.447 18.675 104.423 19.5742 102.53 19.5742H96.0477V14.1187H96.051ZM102.096 29.9667H96.0477V23.7635H102.096C104.669 23.7635 105.972 24.8176 105.972 26.8651C105.972 28.9126 104.638 29.9667 102.096 29.9667Z" fill="white"/>
</svg>
