<svg width="188" height="56" viewBox="0 0 188 56" fill="none" xmlns="http://www.w3.org/2000/svg">
<g clip-path="url(#clip0_676_314)">
<path d="M46.757 11.3468V44.5602C56.0993 44.4366 63.6043 37.0524 63.6043 27.9381C63.6043 18.8237 56.0682 11.4704 46.757 11.3468Z" fill="#008BD7"/>
<path d="M29.816 11.3468V44.5602C20.5048 44.4675 12.9686 37.0833 12.9686 27.9689C12.9686 18.8546 20.5048 11.4704 29.816 11.3468Z" fill="#008BD7"/>
<path d="M29.816 11.3468L46.7568 22.5003V44.5911L29.816 33.2831V11.3468Z" fill="#005FA9"/>
<path fill-rule="evenodd" clip-rule="evenodd" d="M73.912 22.4389C73.8497 22.5007 73.8186 25.0033 73.8186 28.0002V33.4379H77.4621V29.5141H80.7631V33.4379H84.2198V22.3771H82.507L80.7942 22.3153L80.7319 24.4162L80.6697 26.5172H77.3687L77.3064 24.4471L77.2441 22.3771H75.6248C74.7217 22.3462 73.9432 22.3771 73.912 22.4389Z" fill="white"/>
<path fill-rule="evenodd" clip-rule="evenodd" d="M107.513 27.8763V33.4376H109.257H111.001V31.4603V29.4829H112.62H114.271V31.4603V33.4376H116.015H117.727V27.8763V22.2841L116.015 22.315L114.271 22.3459V24.4777V26.6096L112.683 26.5478L111.063 26.486L111.032 24.416L110.97 22.315H109.257H107.513V27.8763Z" fill="white"/>
<path fill-rule="evenodd" clip-rule="evenodd" d="M124.797 25.1575C123.801 26.6714 122.929 27.9381 122.866 27.9381C122.804 27.9381 122.742 26.7023 122.742 25.2193V22.4695H119.441V33.4067H122.555L124.423 30.6261L126.292 27.8454L126.354 30.6261L126.416 33.4067H129.686V22.2841H128.16C128.16 22.315 126.634 22.3768 126.634 22.3768L124.828 25.1575H124.797Z" fill="white"/>
<path fill-rule="evenodd" clip-rule="evenodd" d="M131.524 22.4079C131.461 22.4697 131.399 24.9723 131.399 27.9692V33.407H135.043V29.4831H135.51C135.946 29.4831 136.07 29.6376 136.973 31.4605L137.97 33.4378H141.987L140.866 31.3369C140.243 30.1937 139.558 28.927 139.371 28.5563L138.997 27.8765L140.305 25.1577C141.022 23.6747 141.613 22.4079 141.613 22.377C141.613 22.3461 140.773 22.3152 139.745 22.3152H137.876L136.942 24.4471C136.07 26.4244 135.977 26.5789 135.51 26.5789H135.043L134.98 24.478L134.918 22.377L133.268 22.3152C132.364 22.2843 131.555 22.3152 131.492 22.377L131.524 22.4079Z" fill="white"/>
<path fill-rule="evenodd" clip-rule="evenodd" d="M153.883 25.2502C153.883 29.7301 153.696 30.3172 152.201 30.5952L151.64 30.7188V33.4686L153.166 33.4068C155.004 33.3141 155.627 33.036 156.312 31.9547C156.934 30.9969 157.184 29.6065 157.184 27.1349V25.2193L158.274 25.2811L159.363 25.3429V33.4686H161.139H162.914V22.3459H153.914V25.2811L153.883 25.2502Z" fill="white"/>
<path fill-rule="evenodd" clip-rule="evenodd" d="M142.641 27.9383V33.4378H146.783H150.955V32.0475V30.6881H148.526H146.097V29.9156V29.1432H148.184H150.27L150.208 27.9074L150.177 26.6715H148.184L146.191 26.6406L146.129 25.93L146.066 25.2194H148.34H150.613V23.86V22.4697H146.627H142.641V27.9383Z" fill="white"/>
<path fill-rule="evenodd" clip-rule="evenodd" d="M95.1816 24.4471C94.7145 23.4276 94.3719 23.1495 93.3443 22.6552C92.7214 22.3771 92.192 22.3153 90.5727 22.3153C88.8288 22.3153 88.4862 22.3771 87.6766 22.717C85.8704 23.5512 85.2787 25.0342 85.4033 28.5254C85.4967 31.3988 85.9327 32.2948 87.6454 33.1599C88.3617 33.5306 88.7042 33.5615 90.3236 33.5615C92.7214 33.5615 93.3443 33.3761 94.3408 32.3875C95.3685 31.3679 95.5553 30.6573 95.5553 27.6295C95.5553 25.4976 95.5241 25.1887 95.1505 24.4162L95.1816 24.4471ZM91.7872 30.5646C91.3824 31.0589 90.5727 31.2752 89.9499 31.028C89.1091 30.7191 89.0468 30.441 89.0468 27.9075C89.0468 25.6212 89.0468 25.5285 89.4516 25.1269C90.1056 24.478 91.3201 24.6016 91.9118 25.374C92.0675 25.5594 92.1298 26.3936 92.1298 27.8766C92.1298 29.854 92.0986 30.1629 91.7872 30.5337V30.5646Z" fill="white"/>
<path fill-rule="evenodd" clip-rule="evenodd" d="M106.455 26.3008C106.393 24.6942 106.361 24.5397 105.894 23.9218C105.583 23.5202 105.022 23.1185 104.431 22.8404C103.528 22.4388 103.247 22.4079 100.227 22.3152L96.9879 22.2534V33.4069H100.631V30.719L102.157 30.6572C104.213 30.5645 105.552 29.9466 106.143 28.8034C106.486 28.1237 106.548 27.8456 106.486 26.3008H106.455ZM101.379 28.1237H100.413V25.0341H101.317C102.562 25.0341 103.029 25.4666 103.029 26.6098C103.029 27.7529 102.656 28.1237 101.379 28.1237Z" fill="white"/>
<path fill-rule="evenodd" clip-rule="evenodd" d="M169.547 25.7448L167.803 25.6521L167.741 23.9837L167.678 22.3153H164.222V33.4688L167.554 33.407C170.481 33.3452 170.979 33.3143 171.664 32.9745C173.066 32.3257 173.751 31.1825 173.72 29.3905C173.72 26.9188 172.505 25.8684 169.484 25.7139L169.547 25.7448ZM170.294 30.2865C170.045 30.6882 169.36 30.9044 168.488 30.8427H167.803C167.803 30.8118 167.741 29.8849 167.741 29.8849L167.678 28.958H168.644C169.453 28.958 169.671 29.0198 170.045 29.2669C170.512 29.6068 170.574 29.7922 170.263 30.2556L170.294 30.2865Z" fill="white"/>
</g>
<defs>
<clipPath id="clip0_676_314">
<rect width="161" height="33.3679" fill="white" transform="translate(13 11.316)"/>
</clipPath>
</defs>
</svg>
