<svg width="1920" height="840" viewBox="0 0 1920 840" fill="none" xmlns="http://www.w3.org/2000/svg">
<g clip-path="url(#clip0_353_6713)">
<rect width="1920" height="840" fill="#0077FF"/>
<path d="M1745.59 546.311C1683.36 504 1614.05 471.022 1539.45 448.389C1496.51 435.322 1452.48 425.911 1407.52 420.078C1452.4 414.244 1496.51 404.756 1539.45 391.767C1614.05 369.056 1683.36 336.156 1745.59 293.844C1807.27 251.844 1860.17 201.911 1902.8 145.367C1937.03 99.9444 1963.86 51.2556 1982.92 0.155556H1967.91C1949.47 48.2222 1923.88 94.0333 1891.6 136.967C1849.9 192.344 1798.1 241.189 1737.65 282.333C1676.59 323.867 1608.52 356.222 1535.32 378.467C1461.73 400.867 1384.49 412.533 1305.69 413.156V0H1291.69V825.922C1208.45 824.6 1127.24 800.178 1050.15 753.2C973.297 706.378 902.975 638.789 841.133 552.3C735.729 405.067 662.218 212.256 629.158 0H615C648.216 215.211 722.738 410.9 829.776 560.467C892.785 648.511 964.507 717.422 1042.92 765.178C1124.36 814.8 1210.48 840 1298.77 840H1305.77V427C1384.57 427.622 1461.81 439.289 1535.4 461.689C1608.6 483.933 1676.67 516.289 1737.73 557.822C1798.17 598.889 1849.9 647.811 1891.68 703.189C1923.96 746.044 1949.55 791.933 1968.06 840H1983C1963.94 788.9 1937.1 740.211 1902.88 694.789C1860.17 638.244 1807.27 588.233 1745.59 546.311Z" fill="#005EFF"/>
</g>
<defs>
<clipPath id="clip0_353_6713">
<rect width="1920" height="840" fill="white"/>
</clipPath>
</defs>
</svg>
