<svg width="188" height="56" viewBox="0 0 188 56" fill="none" xmlns="http://www.w3.org/2000/svg">
<path d="M58.7812 39.1898C56.9287 37.8598 55.7948 35.9078 55.3662 33.3207H59.1504C59.9481 36.6291 62.3676 38.2899 66.4221 38.2899C68.3273 38.2899 69.8107 37.8863 70.8918 37.0989C71.9599 36.3115 72.5005 35.2131 72.5005 33.8037C72.5005 32.5994 72.1247 31.6797 71.3929 31.0775C70.6611 30.4688 69.336 29.9791 67.4373 29.6284L62.4929 28.7219C60.2646 28.3183 58.6296 27.5838 57.6011 26.5251C56.5595 25.4532 56.0453 24.0041 56.0453 22.1779C56.0453 19.8884 56.8957 18.0886 58.623 16.7851C60.3371 15.4816 62.6775 14.8331 65.6507 14.8331C68.624 14.8331 70.9578 15.4816 72.7048 16.7586C74.4585 18.0357 75.5001 19.8884 75.8627 22.2903H72.217C71.6368 19.2267 69.4349 17.6982 65.6112 17.6982C63.8114 17.6982 62.3808 18.0754 61.2996 18.8099C60.2184 19.5443 59.691 20.5567 59.691 21.8073C59.691 22.9322 60.0404 23.7858 60.7194 24.3283C61.4051 24.8842 62.6511 25.3341 64.4509 25.6848L69.369 26.631C71.7027 27.081 73.4102 27.8617 74.5046 28.9734C75.599 30.0718 76.1528 31.5738 76.1528 33.4596C76.1528 35.8681 75.2759 37.7672 73.5157 39.1501C71.7489 40.533 69.3294 41.2212 66.2506 41.2212C63.1719 41.2212 60.6337 40.5595 58.7812 39.2295L58.768 39.1898H58.7812ZM85.066 39.514C83.1871 38.4024 81.7301 36.8342 80.7017 34.8425C79.66 32.8509 79.1458 30.5614 79.1458 28.0007C79.1458 25.44 79.66 23.1241 80.7017 21.1192C81.7433 19.1275 83.2003 17.5725 85.066 16.4609C86.9317 15.3493 89.0941 14.8067 91.5201 14.8067C93.9462 14.8067 96.0888 15.3625 97.9743 16.4609C99.8532 17.5593 101.31 19.1142 102.339 21.1192C103.38 23.1108 103.894 25.4135 103.894 28.0007C103.894 30.5879 103.38 32.8376 102.339 34.8425C101.297 36.8342 99.84 38.3958 97.9743 39.514C96.1086 40.6257 93.9462 41.1947 91.5201 41.1947C89.0941 41.1947 86.9515 40.6389 85.066 39.514ZM83.9452 33.3207C84.6638 34.8624 85.6857 36.0468 86.9976 36.9004C88.3095 37.7539 89.8193 38.1774 91.5201 38.1774C93.221 38.1774 94.7242 37.7539 96.0361 36.9004C97.348 36.0468 98.3699 34.8558 99.0885 33.3207C99.8071 31.7922 100.17 30.0255 100.17 28.0073C100.17 25.9892 99.8071 24.2158 99.1017 22.6807C98.3962 21.139 97.3744 19.9414 96.0625 19.101C94.7505 18.2607 93.2276 17.8306 91.507 17.8306C89.7863 17.8306 88.2634 18.2541 86.9515 19.101C85.6395 19.9414 84.6243 21.1324 83.9123 22.6807C83.2069 24.2225 82.8443 26.0024 82.8443 28.0073C82.8443 30.0122 83.2069 31.7855 83.9255 33.3207H83.9518H83.9452ZM107.751 15.2037H111.397V37.6944H125.274V40.8242H107.764V15.2037H107.751ZM138.651 15.2037H142.771L152.93 40.8242H149.107L146.483 33.9691H134.781L132.117 40.8242H128.472L138.631 15.2037H138.657H138.651ZM145.362 30.9783L140.675 18.7702L135.948 30.9783H145.362ZM168.093 15.2037C170.849 15.2037 172.919 15.8257 174.31 17.0498C175.714 18.2805 176.407 20.1002 176.407 22.5087C176.407 24.6923 175.8 26.4126 174.607 27.6831C173.407 28.9535 171.673 29.7277 169.392 29.999L177 40.8109H172.53L165.1 30.0784H159.767V40.8109H156.121V15.2037H168.093ZM167.79 26.9552C169.491 26.9552 170.75 26.6045 171.574 25.8965C172.398 25.1951 172.814 24.0967 172.814 22.6278C172.814 21.1589 172.405 20.0935 171.574 19.3789C170.75 18.6709 169.491 18.3202 167.79 18.3202H159.806V26.9486H167.79V26.9618V26.9552Z" fill="#FE6E36"/>
<path d="M40.825 17.3076C37.0804 13.2448 31.18 11.2929 25.4247 12.2324C20.4934 12.9868 16.1555 15.8717 13.5118 20.1594C10.9407 24.3413 10.3078 29.3701 11.778 33.9622C13.1163 38.2963 16.3994 42.0083 20.5725 43.8544L20.9088 44L21.4098 42.9942L21.0868 42.8156C17.9684 41.0555 15.6017 38.2764 14.415 34.9945C12.4175 29.6546 13.9535 23.3289 18.1464 19.6036C21.39 16.6922 25.4313 15.5012 29.5319 16.2555C33.8303 17.0429 37.5156 19.8749 39.6516 24.0171C42.3413 29.2444 41.5436 35.762 37.6144 40.6188L37.4101 40.8768L38.1023 41.651L38.3726 41.4856C41.3195 39.6395 43.5873 36.5428 44.5894 33.0292C46.1848 27.5703 44.7081 21.4034 40.8185 17.301V17.3142L40.825 17.3076Z" fill="#FE6E36"/>
</svg>
