<svg width="214" height="84" viewBox="0 0 214 84" fill="none" xmlns="http://www.w3.org/2000/svg">
<path d="M15.6754 37.7164C6.64798 37.7164 1.24392 33.8367 0 26.4581H5.46084C6.59637 31.1971 10.1113 33.5691 15.9438 33.5691C21.4046 33.5691 24.6977 31.1456 24.6977 27.1579C24.6977 23.7104 22.9118 22.2028 17.3993 21.1788L10.2662 19.8873C3.83498 18.6935 0.970358 15.7349 0.970358 10.5071C0.970358 3.98775 6.27119 0 14.8083 0C23.3454 0 28.481 3.77164 29.5082 10.6666H24.2641C23.4538 6.30322 20.2123 4.0958 14.7515 4.0958C9.29066 4.0958 6.21442 6.41127 6.21442 9.9668C6.21442 13.1982 7.8919 14.5463 13.0792 15.5188L20.1607 16.8669C26.8603 18.1584 29.9417 21.2303 29.9417 26.6176C29.9417 33.5125 24.5377 37.7164 15.6754 37.7164ZM45.4004 37.1761V5.0117H33.0231V0.540276H63.0165V5.0117H50.6393V37.1761H45.3952H45.4004ZM61.5248 37.1761L76.1731 0.540276H82.1191L96.7674 37.1761H91.2549L87.4716 27.3688H70.609L66.7689 37.1761H61.5248ZM72.2813 23.1135H85.8457L79.0893 5.65489L72.2813 23.1135ZM94.5376 0.540276H100.644L111.292 17.2425L121.672 0.540276H127.618L113.62 22.2542V37.1761H108.484V22.2542L94.5376 0.540276ZM157.441 37.7164C146.849 37.7164 139.608 30.0136 139.608 18.8582C139.608 7.70279 146.849 0 157.441 0C168.032 0 175.273 7.65133 175.273 18.8582C175.273 30.0651 168.032 37.7164 157.441 37.7164ZM144.96 18.8582C144.96 27.5335 149.987 33.4045 157.446 33.4045C164.904 33.4045 169.931 27.5335 169.931 18.8582C169.931 10.1829 164.961 4.31191 157.446 4.31191C149.931 4.31191 144.96 10.1315 144.96 18.8582ZM182.149 37.1761V0.540276H188.797L207.822 30.3892V0.540276H212.957V37.1761H206.469L187.284 7.003V37.1761H182.149ZM23.9544 84C10.101 84 1.53812 76.6574 1.53812 64.761C1.53812 52.8647 10.0494 45.2082 23.0202 45.2082C28.6256 45.2082 34.1225 46.4483 37.6014 48.5168L38.3291 55.9108C38.0711 56.0652 37.653 56.1166 37.2401 56.1166C36.8271 56.1166 36.3574 56.0652 36.0478 55.9108C33.2967 50.3228 28.8372 47.4774 22.6073 47.4774C13.7863 47.4774 8.07771 53.9967 8.07771 64.1333C8.07771 74.2699 14.5089 81.4581 24.5273 81.4581C27.6913 81.4581 30.0295 81.0979 31.7895 80.1666V70.4931C31.7895 67.7506 31.4282 66.8707 30.0759 66.3561C29.4514 66.0989 28.2591 65.8416 26.4939 65.5277C26.339 64.6993 26.3906 64.2362 26.7519 63.768H41.0699C41.4828 64.1796 41.5344 64.8537 41.2763 65.5277L38.7317 66.2018C37.3846 66.562 36.8633 67.7043 36.8633 70.4417V77.4755H40.0273C40.4918 77.7843 40.6002 78.1496 40.4918 78.9729C36.0323 82.2299 29.8024 83.9897 23.9389 83.9897L23.9544 84ZM66.5521 84C57.4214 84 50.727 79.9659 50.727 69.8293C50.727 66.3613 50.7786 61.7612 50.7786 58.7614C50.7786 55.7616 50.727 53.7446 50.6754 52.2421C50.5722 49.8649 50.3141 48.7226 49.4831 48.3624C48.9102 48.1051 47.0985 47.7398 46.061 47.5854C45.6997 46.9114 45.803 46.1395 46.1643 45.7228H62.299C62.7636 46.3968 62.6603 47.0657 62.4023 47.5854C62.0926 47.6883 58.975 48.1566 58.046 48.5682C57.0601 48.9798 56.6988 49.8083 56.544 52.7566C56.3375 56.8936 56.2859 60.6704 56.2859 65.2241C56.2859 69.0009 56.2859 71.1209 56.9104 73.4981C58.1028 78.0518 61.6848 80.7378 67.9612 80.7378C74.2375 80.7378 78.026 77.4807 78.5474 71.5839C78.7022 69.8756 78.8054 65.7387 78.8054 61.6532C78.8054 57.9278 78.7022 54.1511 78.599 52.2369C78.4441 49.8083 78.0261 49.0313 76.3692 48.4602C75.5898 48.2029 73.2052 47.6317 72.8388 47.5803C72.4775 46.8548 72.6323 46.1344 72.942 45.7176C75.275 45.8205 84.2508 45.8205 86.3257 45.7176C86.7386 46.1807 86.7902 47.0606 86.4289 47.5803C85.9592 47.7346 84.0443 48.1 83.2133 48.5631C82.434 48.9747 82.021 49.8031 81.9178 52.2369C81.8146 54.7171 81.763 57.2538 81.763 61.859C81.763 64.1847 81.8146 68.0644 81.7113 70.4983C81.4017 79.0861 75.8479 84 66.5624 84H66.5521ZM101.382 65.0698H110.719C109.16 60.4646 107.292 55.4477 105.996 51.8304C104.855 54.9332 103.142 59.8986 101.377 65.0698H101.382ZM125.558 81.0002L127.53 81.5713C127.685 82.3483 127.633 82.9143 127.272 83.4855C122.084 83.3825 116.582 83.3825 110.719 83.4855C110.461 83.0172 110.461 82.3998 110.616 81.7257L112.742 81.3141C115.287 80.7944 115.751 79.6572 114.714 76.503C114.404 75.5202 113.155 72.0522 111.705 67.8123H100.448L97.7481 75.8804C96.4525 79.8116 96.9687 80.8973 99.7197 81.3655L102.104 81.7771C102.259 82.3483 102.208 82.9143 101.95 83.4855C97.4332 83.3825 92.1943 83.3825 87.9929 83.4855C87.6832 82.9658 87.6832 82.3483 87.8896 81.6228L90.0162 81.0568C92.2459 80.4342 93.2318 79.1941 95.3067 73.8171L104.386 50.436L103.348 48.3161C105.836 47.5906 107.343 46.402 107.55 45.059C108.071 44.8017 108.536 44.7503 109 44.8532C109.521 45.9389 116.887 66.2687 120.52 75.371C122.182 79.508 122.905 80.2335 125.553 81.0105L125.558 81.0002ZM142.307 64.0355C149.987 63.5673 155.02 61.2415 155.02 54.8303C155.02 48.419 149.518 47.5906 146.72 47.5906C142.828 47.5906 142.57 48.7792 142.415 52.5045C142.312 55.4529 142.312 57.2641 142.312 64.0407L142.307 64.0355ZM151.18 64.6581V64.7096C152.687 65.7953 154.086 67.0868 156.057 69.5206L160.414 74.9542C164.15 79.5594 164.254 79.6624 169.441 81.6794C169.699 82.3534 169.647 83.1253 169.235 83.7479C167.779 83.6964 164.93 83.5935 162.695 83.3877C159.113 83.079 158.855 82.9246 155.273 77.7997C152.94 74.4911 151.278 72.0059 149.1 69.4743C147.386 67.4573 146.142 66.6289 143.649 66.1658L142.302 65.9085C142.302 69.3714 142.302 73.7193 142.405 76.3024C142.508 79.3536 142.715 80.3364 143.752 80.7995C144.583 81.1597 147.123 81.5765 147.541 81.7308C147.799 82.4049 147.747 82.9194 147.334 83.4906C144.687 83.3877 133.842 83.3877 131.664 83.4906C131.354 82.868 131.406 82.1476 131.561 81.7308C132.237 81.5765 134.364 81.2677 135.298 80.9024C136.232 80.5422 136.438 79.297 136.593 76.8169C136.8 73.7142 136.903 67.8175 136.903 64.6633C136.903 62.0236 136.903 57.9381 136.645 52.4067C136.49 49.4584 136.18 48.7329 135.143 48.3212C134.364 48.0125 132.862 47.6986 131.561 47.4928C131.251 46.7673 131.354 46.2013 131.664 45.733C133.739 45.733 135.556 45.7845 137.166 45.7845C142.095 45.7845 145.259 45.6301 147.231 45.6301C156.259 45.6301 161.085 48.8872 161.085 54.3723C161.085 59.3892 157.244 62.9087 151.175 64.6633L151.18 64.6581ZM190.913 81.417C200.461 81.417 207.672 75.937 207.672 64.864C207.672 52.1906 199.476 47.9508 189.147 47.9508C184.322 47.9508 183.909 48.7792 183.857 52.0363C183.805 55.813 183.754 60.8814 183.754 64.3443C183.754 69.5669 183.754 74.5838 183.909 76.6523C184.167 80.429 185.777 81.4118 190.913 81.4118V81.417ZM190.861 83.7427C187.021 83.7427 183.96 83.4855 173.116 83.4855C172.755 83.0172 172.806 82.2454 173.013 81.7257C173.271 81.6742 176.228 81.1545 176.801 80.8973C177.684 80.4856 177.89 79.9659 178.097 75.7775C178.303 71.6406 178.303 67.4007 178.303 64.2928C178.303 60.8813 178.355 56.4305 178.148 52.2421C177.994 49.2937 177.735 48.6197 176.801 48.3109C176.073 48.0537 173.895 47.6369 173.013 47.4825C172.806 46.9114 172.806 46.2939 173.116 45.7228C178.721 45.7228 184.322 45.6199 189.927 45.6199C204.405 45.6199 214 51.3107 214 63.9275C214 73.2871 207.517 83.7376 190.861 83.7376V83.7427Z" fill="white"/>
</svg>
