<svg width="142" height="36" viewBox="0 0 142 36" fill="none" xmlns="http://www.w3.org/2000/svg">
<path d="M1.77947 35.3015C1.8035 35.3135 1.82754 35.3255 1.85157 35.3255C1.86358 35.3375 1.88761 35.3375 1.92366 35.3495C2.17598 35.4216 2.44032 35.4697 2.7287 35.4697H4.13451H9.62559H16.8469L7.58296 26.3619C5.86474 28.0321 4.73529 29.1375 3.90622 29.9546C3.16126 30.6755 2.6566 31.1802 2.188 31.6488C1.59924 32.2255 1.20273 32.61 1.20273 32.61C0.914357 32.9104 0.734125 33.3429 0.734125 33.7875C0.722109 34.4844 1.16668 35.0491 1.77947 35.3015Z" fill="#FF4F12"/>
<path d="M0.721808 33.7876C0.721808 33.343 0.902041 32.9104 1.19041 32.6101C1.19041 32.6101 1.58692 32.2256 2.17568 31.6488C2.64429 31.1802 3.14894 30.6876 3.8939 29.9546C4.72297 29.1376 5.86444 28.0322 7.57064 26.362C8.07529 25.8694 8.62801 25.3287 9.2408 24.7399C9.25281 24.7279 9.26483 24.7159 9.27684 24.7039C12.0524 22.0004 15.9935 18.1434 21.785 12.4841L9.07258 0L1.8753 7.06511C-0.275478 9.17984 0.0128939 10.5616 0.0128939 13.3973V32.8023C0.0128939 33.9438 0.745839 34.917 1.77917 35.3015C1.16638 35.0492 0.721808 34.4845 0.721808 33.7876Z" fill="#7800FF"/>
<path d="M138.588 34.1241V30.6636H137.614V35.4698H138.684L141.027 32.0094V35.4698H142V30.6636H140.931L138.588 34.1241ZM140.882 28.9454H140.198C140.198 29.1857 140.053 29.3659 139.813 29.3659C139.573 29.3659 139.441 29.1977 139.441 28.9454H138.756C138.756 29.5582 139.176 29.9907 139.825 29.9907C140.438 29.9907 140.882 29.5462 140.882 28.9454ZM135.956 32.49C135.872 31.733 135.283 31.3125 134.538 31.3125C133.793 31.3125 133.217 31.8291 133.048 32.49H135.956ZM136.929 32.9345V33.283H133.024C133.096 34.1361 133.673 34.7489 134.538 34.7489C135.295 34.7489 135.62 34.4245 135.932 33.9919L136.725 34.4125C136.269 35.1694 135.596 35.614 134.514 35.614C133.169 35.614 132.039 34.5927 132.039 33.0787C132.039 31.5768 133.169 30.5435 134.562 30.5435C135.98 30.5315 136.929 31.5287 136.929 32.9345ZM127.918 31.5648H129.456V35.4698H130.477V31.5648H132.003V30.6636H127.918V31.5648ZM125.647 34.6768C124.782 34.6768 124.145 34.052 124.145 33.0667C124.145 32.0814 124.806 31.4566 125.647 31.4566C126.176 31.4566 126.62 31.697 126.945 32.2256L127.798 31.745C127.437 30.988 126.704 30.5314 125.647 30.5314C124.277 30.5314 123.1 31.5528 123.1 33.0667C123.1 34.5807 124.193 35.602 125.647 35.602C126.668 35.602 127.365 35.1334 127.834 34.3524L127.017 33.8958C126.692 34.3524 126.332 34.6768 125.647 34.6768ZM121.67 33.0667C121.67 32.0814 120.937 31.4446 120.096 31.4446C119.243 31.4446 118.51 32.0694 118.51 33.0667C118.51 34.052 119.243 34.6888 120.096 34.6888C120.949 34.6768 121.67 34.052 121.67 33.0667ZM122.715 33.0667C122.715 34.7249 121.429 35.602 120.096 35.602C118.75 35.602 117.476 34.7249 117.476 33.0667C117.476 31.4086 118.762 30.5314 120.096 30.5314C121.429 30.5314 122.715 31.4086 122.715 33.0667ZM115.77 32.538H113.487V30.6756H112.466V35.4818H113.487V33.4152H115.77V35.4818H116.791V30.6756H115.77V32.538ZM111.925 30.6636H110.615L109.053 32.526V30.6636H108.032V32.526L106.47 30.6636H105.16L107.167 32.9225L105.124 35.4698H106.362L108.032 33.3551V35.4698H109.053V33.3671L110.724 35.4698H111.961L109.919 32.9225L111.925 30.6636ZM103.851 33.0667C103.851 32.0814 103.118 31.4446 102.277 31.4446C101.424 31.4446 100.691 32.0694 100.691 33.0667C100.691 34.052 101.424 34.6888 102.277 34.6888C103.118 34.6768 103.851 34.052 103.851 33.0667ZM104.884 33.0667C104.884 34.7249 103.598 35.602 102.265 35.602C100.919 35.602 99.6453 34.7249 99.6453 33.0667C99.6453 31.4086 100.931 30.5314 102.265 30.5314C103.61 30.5314 104.884 31.4086 104.884 33.0667ZM96.1368 34.3163L94.6949 30.6636H93.3131V35.4698H94.2984V32.0574L95.7162 35.4698H96.5693L97.9752 32.0694V35.4698H98.9604V30.6636H97.5666L96.1368 34.3163ZM91.643 32.9345C92.1597 32.7423 92.4721 32.3698 92.4721 31.8171C92.4721 31.0962 91.9193 30.5314 90.6817 30.5314C89.5042 30.5314 88.8194 31.1202 88.8194 31.8772C88.8194 32.0935 88.8674 32.2497 88.9035 32.3458L89.7686 32.0694C89.7566 32.0334 89.7445 31.9733 89.7445 31.8652C89.7445 31.5768 90.093 31.3365 90.6697 31.3365C91.2225 31.3365 91.5108 31.5648 91.5108 31.9252C91.5108 32.2977 91.2465 32.5741 90.6457 32.5741H90.2492V33.3791H90.6577C91.2945 33.3791 91.667 33.6314 91.667 34.052C91.667 34.4966 91.2945 34.821 90.5976 34.821C90.081 34.821 89.6004 34.5807 89.6004 34.1001C89.6004 33.9919 89.6244 33.9198 89.6484 33.8477L88.7953 33.5714C88.7473 33.6795 88.6752 33.8958 88.6752 34.1121C88.6752 34.9772 89.3721 35.614 90.5976 35.614C91.9434 35.614 92.6643 34.9411 92.6643 34.088C92.6643 33.4632 92.2438 33.0907 91.643 32.9345ZM87.1852 33.0667C87.1852 32.0814 86.4523 31.4446 85.6112 31.4446C84.7581 31.4446 84.0252 32.0694 84.0252 33.0667C84.0252 34.052 84.7581 34.6888 85.6112 34.6888C86.4523 34.6768 87.1852 34.052 87.1852 33.0667ZM88.2186 33.0667C88.2186 34.7249 86.9329 35.602 85.5992 35.602C84.2535 35.602 82.9798 34.7249 82.9798 33.0667C82.9798 31.4086 84.2655 30.5314 85.5992 30.5314C86.9329 30.5314 88.2186 31.4086 88.2186 33.0667ZM81.6341 34.0159C81.6341 33.6074 81.3697 33.3551 80.8411 33.3551H79.6275V34.6768H80.8411C81.3577 34.6768 81.6341 34.4245 81.6341 34.0159ZM79.6275 32.5861H80.769C81.2256 32.5861 81.5019 32.4059 81.5019 32.0094C81.5019 31.6249 81.2256 31.4446 80.781 31.4446H79.6275V32.5861ZM82.6434 34.076C82.6434 34.8931 81.9225 35.4578 80.9011 35.4578H78.6182V30.6516H80.8411C81.8864 30.6516 82.4632 31.1803 82.4632 31.8411C82.4632 32.3939 82.1628 32.7183 81.7182 32.9105C82.2469 33.0787 82.6434 33.4632 82.6434 34.076ZM71.8174 34.1241V30.6636H70.8442V35.4698H71.9136L74.2566 32.0094V35.4698H75.2298V30.6636H74.1604L71.8174 34.1241ZM66.5066 34.1241V30.6636H65.5333V35.4698H66.6027L68.9457 32.0094V35.4698H69.919V30.6636H68.8496L66.5066 34.1241ZM61.6763 35.4698H62.6977V31.5648H64.8725V30.6636H61.6884V35.4698H61.6763ZM59.9581 33.0667C59.9581 32.0814 59.2252 31.4446 58.3841 31.4446C57.531 31.4446 56.7981 32.0694 56.7981 33.0667C56.7981 34.052 57.531 34.6888 58.3841 34.6888C59.2252 34.6768 59.9581 34.052 59.9581 33.0667ZM60.9915 33.0667C60.9915 34.7249 59.7058 35.602 58.3721 35.602C57.0263 35.602 55.7527 34.7249 55.7527 33.0667C55.7527 31.4086 57.0384 30.5314 58.3721 30.5314C59.7178 30.5314 60.9915 31.4086 60.9915 33.0667ZM51.2829 33.5233C51.2229 34.4485 51.0787 34.6408 50.7543 34.6408C50.538 34.6408 50.4058 34.5807 50.4058 34.5807V35.4578C50.4058 35.4578 50.5981 35.5299 50.8143 35.5299C51.7876 35.5299 52.1481 34.9291 52.2201 33.5594L52.3283 31.5648H54.0585V35.4698H55.0798V30.6636H51.4391L51.2829 33.5233ZM49.2643 33.0667C49.2643 32.0814 48.5314 31.4446 47.6903 31.4446C46.8372 31.4446 46.1043 32.0694 46.1043 33.0667C46.1043 34.052 46.8372 34.6888 47.6903 34.6888C48.5314 34.6768 49.2643 34.052 49.2643 33.0667ZM50.2977 33.0667C50.2977 34.7249 49.012 35.602 47.6783 35.602C46.3326 35.602 45.0589 34.7249 45.0589 33.0667C45.0589 31.4086 46.3446 30.5314 47.6783 30.5314C49.012 30.5314 50.2977 31.4086 50.2977 33.0667ZM43.3647 32.538H41.0818V30.6756H40.0605V35.4818H41.0818V33.4152H43.3647V35.4818H44.386V30.6756H43.3647V32.538ZM39.5078 30.6636H38.3423L37.405 32.1295L36.4678 30.6636H35.3143L36.8523 32.9225L35.062 35.4698H36.2516L37.405 33.7035L38.5465 35.4698H39.724L38.0058 32.8985L39.5078 30.6636ZM31.3132 32.49H34.2209C34.1368 31.733 33.5481 31.3125 32.8031 31.3125C32.0581 31.3125 31.4814 31.8291 31.3132 32.49ZM34.1969 33.9799L34.9899 34.4004C34.5333 35.1574 33.8605 35.602 32.7791 35.602C31.4213 35.602 30.3039 34.5807 30.3039 33.0667C30.3039 31.5648 31.4333 30.5314 32.8271 30.5314C34.245 30.5314 35.1942 31.5287 35.1942 32.9345V33.283H31.2892C31.3613 34.1361 31.938 34.7489 32.8031 34.7489C33.5721 34.7369 33.8845 34.4125 34.1969 33.9799ZM31.181 28.6931H25.8582V29.6543H27.9849V35.4698H29.0543V29.6543H31.181V28.6931ZM138.527 15.2838L135.644 22.4811L132.76 15.2838H129.288V25.533H131.811V19.0446L134.61 25.533H136.677L139.477 19.0446V25.533H142V15.2838H138.527ZM119.219 20.4264C119.219 22.3128 120.672 23.4063 122.234 23.4063C123.796 23.4063 125.25 22.3128 125.25 20.4264C125.25 18.54 123.796 17.4466 122.234 17.4466C120.672 17.4466 119.219 18.54 119.219 20.4264ZM116.515 20.4264C116.515 16.8218 119.363 15.0074 122.234 15.0074C125.106 15.0074 127.954 16.8338 127.954 20.4264C127.954 24.0311 125.106 25.8454 122.234 25.8454C119.363 25.8454 116.515 24.0311 116.515 20.4264ZM65.6415 25.557H68.2969V17.5667H71.4209V15.2958H62.5174V17.5667H65.6415V25.557ZM97.6387 19.0567H103.19C102.938 17.771 101.94 16.99 100.462 16.99C99.0806 16.99 98.0232 17.9032 97.6387 19.0567ZM95.0434 20.4264C95.0434 17.1822 97.5065 15.0074 100.546 15.0074C103.538 15.0074 105.653 17.1462 105.653 20.138V21.0512H97.5907C97.7589 22.6253 98.9003 23.6225 100.462 23.6225C101.88 23.6225 102.469 23.0218 103.118 22.2167L105.233 23.2501C104.175 25.0043 102.721 25.8574 100.426 25.8574C97.5186 25.8454 95.0434 23.6706 95.0434 20.4264ZM80.2883 19.0567C80.036 17.771 79.0387 16.99 77.5728 16.99C76.1791 16.99 75.1217 17.9032 74.7492 19.0567H80.2883ZM82.7515 20.138V21.0512H74.6891C74.8573 22.6253 75.9988 23.6225 77.5608 23.6225C78.9787 23.6225 79.5674 23.0218 80.2163 22.2167L82.331 23.2501C81.2736 25.0043 79.8197 25.8574 77.5248 25.8574C74.617 25.8574 72.1418 23.6826 72.1418 20.4384C72.1418 17.1942 74.605 15.0194 77.6449 15.0194C80.6368 14.9954 82.7515 17.1342 82.7515 20.138ZM84.3376 25.6772C86.5965 25.6772 87.4376 24.2473 87.6538 21.2074L87.9062 17.6268H90.898V25.533H93.5535V15.2838H85.6232L85.1787 21.0993C85.0465 22.6733 84.7341 23.0218 84.1814 23.0218C83.8089 23.0218 83.6287 22.9857 83.3763 22.9136L83.3883 25.569C83.4004 25.5811 83.7368 25.6772 84.3376 25.6772ZM56.9062 25.8454C59.1411 25.8454 60.643 24.8481 61.7004 23.0939L59.5015 21.9163C58.8647 22.7815 58.1919 23.4063 56.8822 23.4063C55.2841 23.4063 54.0946 22.2648 54.0946 20.4264C54.0946 18.6001 55.3201 17.4466 56.8822 17.4466C57.8314 17.4466 58.6484 17.8791 59.3093 18.8524L61.5922 17.5667C60.8353 15.9687 59.1891 14.9954 56.9062 14.9954C53.9264 14.9954 51.4031 17.1462 51.4031 20.4144C51.4031 23.6946 53.8062 25.8454 56.9062 25.8454ZM47.4019 20.4264C47.4019 18.54 45.9481 17.4466 44.386 17.4466C42.824 17.4466 41.3702 18.54 41.3702 20.4264C41.3702 22.3128 42.824 23.4063 44.386 23.4063C45.9481 23.4063 47.4019 22.3128 47.4019 20.4264ZM44.386 25.8454C41.5143 25.8454 38.6667 24.019 38.6667 20.4264C38.6667 16.8218 41.5143 15.0074 44.386 15.0074C47.2577 15.0074 50.1054 16.8338 50.1054 20.4264C50.1054 24.0311 47.2577 25.8454 44.386 25.8454ZM28.6457 18.0594H32.4907C34.4252 18.0594 35.3143 17.1462 35.3143 15.7764C35.3143 14.4067 34.4252 13.4935 32.4907 13.4935H28.6457V18.0594ZM28.6457 25.557H25.8582V11.0663H32.5628C35.8911 11.0663 38.0899 12.7485 38.0899 15.7884C38.0899 18.8284 35.8911 20.5105 32.5628 20.5105H28.6337V25.557H28.6457ZM112.021 20.0539L116.96 25.557H113.752L109.931 21.3156V25.557H107.275V15.2838H109.931V19.0086L113.691 15.2838H116.839L112.021 20.0539Z" fill="white"/>
</svg>
