<svg width="188" height="56" viewBox="0 0 188 56" fill="none" xmlns="http://www.w3.org/2000/svg">
<path d="M24.78 45.3015C24.804 45.3135 24.828 45.3255 24.8521 45.3255C24.8641 45.3375 24.8881 45.3375 24.9241 45.3496C25.1765 45.4217 25.4408 45.4697 25.7292 45.4697H27.135H32.6261H39.8474L30.5834 36.362C28.8652 38.0321 27.7358 39.1375 26.9067 39.9546C26.1617 40.6755 25.6571 41.1802 25.1885 41.6488C24.5997 42.2255 24.2032 42.61 24.2032 42.61C23.9148 42.9104 23.7346 43.343 23.7346 43.7875C23.7226 44.4844 24.1672 45.0492 24.78 45.3015Z" fill="#FF4F12"/>
<path d="M23.7218 43.7876C23.7218 43.343 23.902 42.9104 24.1904 42.6101C24.1904 42.6101 24.5869 42.2256 25.1757 41.6488C25.6443 41.1802 26.1489 40.6876 26.8939 39.9546C27.723 39.1376 28.8644 38.0322 30.5706 36.362C31.0753 35.8694 31.628 35.3287 32.2408 34.7399C32.2528 34.7279 32.2648 34.7159 32.2768 34.7039C35.0524 32.0004 38.9935 28.1434 44.785 22.4841L32.0726 10L24.8753 17.0651C22.7245 19.1798 23.0129 20.5616 23.0129 23.3973V42.8023C23.0129 43.9438 23.7458 44.917 24.7792 45.3015C24.1664 45.0492 23.7218 44.4845 23.7218 43.7876Z" fill="#7800FF"/>
<path d="M161.589 44.1241V40.6636H160.616V45.4698H161.685L164.028 42.0094V45.4698H165.001V40.6636H163.932L161.589 44.1241ZM163.884 38.9454H163.199C163.199 39.1857 163.055 39.3659 162.814 39.3659C162.574 39.3659 162.442 39.1977 162.442 38.9454H161.757C161.757 39.5582 162.178 39.9907 162.826 39.9907C163.439 39.9907 163.884 39.5462 163.884 38.9454ZM158.957 42.49C158.873 41.733 158.284 41.3125 157.54 41.3125C156.795 41.3125 156.218 41.8291 156.05 42.49H158.957ZM159.931 42.9345V43.283H156.026C156.098 44.1361 156.674 44.7489 157.54 44.7489C158.297 44.7489 158.621 44.4245 158.933 43.9919L159.726 44.4125C159.27 45.1694 158.597 45.614 157.516 45.614C156.17 45.614 155.04 44.5927 155.04 43.0787C155.04 41.5768 156.17 40.5435 157.564 40.5435C158.981 40.5315 159.931 41.5287 159.931 42.9345ZM150.919 41.5648H152.457V45.4698H153.478V41.5648H155.004V40.6636H150.919V41.5648ZM148.648 44.6768C147.783 44.6768 147.146 44.052 147.146 43.0667C147.146 42.0814 147.807 41.4566 148.648 41.4566C149.177 41.4566 149.621 41.697 149.946 42.2256L150.799 41.745C150.438 40.988 149.705 40.5314 148.648 40.5314C147.278 40.5314 146.101 41.5528 146.101 43.0667C146.101 44.5807 147.194 45.602 148.648 45.602C149.669 45.602 150.366 45.1334 150.835 44.3524L150.018 43.8958C149.693 44.3524 149.333 44.6768 148.648 44.6768ZM144.671 43.0667C144.671 42.0814 143.938 41.4446 143.097 41.4446C142.244 41.4446 141.511 42.0694 141.511 43.0667C141.511 44.052 142.244 44.6888 143.097 44.6888C143.95 44.6768 144.671 44.052 144.671 43.0667ZM145.716 43.0667C145.716 44.7249 144.431 45.602 143.097 45.602C141.751 45.602 140.478 44.7249 140.478 43.0667C140.478 41.4086 141.763 40.5314 143.097 40.5314C144.431 40.5314 145.716 41.4086 145.716 43.0667ZM138.771 42.538H136.488V40.6756H135.467V45.4818H136.488V43.4152H138.771V45.4818H139.793V40.6756H138.771V42.538ZM134.926 40.6636H133.617L132.055 42.526V40.6636H131.033V42.526L129.471 40.6636H128.162L130.168 42.9225L128.126 45.4698H129.363L131.033 43.3551V45.4698H132.055V43.3671L133.725 45.4698H134.962L132.92 42.9225L134.926 40.6636ZM126.852 43.0667C126.852 42.0814 126.119 41.4446 125.278 41.4446C124.425 41.4446 123.692 42.0694 123.692 43.0667C123.692 44.052 124.425 44.6888 125.278 44.6888C126.119 44.6768 126.852 44.052 126.852 43.0667ZM127.885 43.0667C127.885 44.7249 126.6 45.602 125.266 45.602C123.92 45.602 122.647 44.7249 122.647 43.0667C122.647 41.4086 123.932 40.5314 125.266 40.5314C126.612 40.5314 127.885 41.4086 127.885 43.0667ZM119.138 44.3163L117.696 40.6636H116.314V45.4698H117.3V42.0574L118.717 45.4698H119.571L120.976 42.0694V45.4698H121.962V40.6636H120.568L119.138 44.3163ZM114.644 42.9345C115.161 42.7423 115.473 42.3698 115.473 41.8171C115.473 41.0962 114.921 40.5314 113.683 40.5314C112.505 40.5314 111.821 41.1202 111.821 41.8772C111.821 42.0935 111.869 42.2497 111.905 42.3458L112.77 42.0694C112.758 42.0334 112.746 41.9733 112.746 41.8652C112.746 41.5768 113.094 41.3365 113.671 41.3365C114.224 41.3365 114.512 41.5648 114.512 41.9252C114.512 42.2977 114.248 42.5741 113.647 42.5741H113.25V43.3791H113.659C114.296 43.3791 114.668 43.6314 114.668 44.052C114.668 44.4966 114.296 44.821 113.599 44.821C113.082 44.821 112.602 44.5807 112.602 44.1001C112.602 43.9919 112.626 43.9198 112.65 43.8477L111.797 43.5714C111.748 43.6795 111.676 43.8958 111.676 44.1121C111.676 44.9772 112.373 45.614 113.599 45.614C114.945 45.614 115.666 44.9411 115.666 44.088C115.666 43.4632 115.245 43.0907 114.644 42.9345ZM110.186 43.0667C110.186 42.0814 109.454 41.4446 108.612 41.4446C107.759 41.4446 107.026 42.0694 107.026 43.0667C107.026 44.052 107.759 44.6888 108.612 44.6888C109.454 44.6768 110.186 44.052 110.186 43.0667ZM111.22 43.0667C111.22 44.7249 109.934 45.602 108.6 45.602C107.255 45.602 105.981 44.7249 105.981 43.0667C105.981 41.4086 107.267 40.5314 108.6 40.5314C109.934 40.5314 111.22 41.4086 111.22 43.0667ZM104.635 44.0159C104.635 43.6074 104.371 43.3551 103.842 43.3551H102.629V44.6768H103.842C104.359 44.6768 104.635 44.4245 104.635 44.0159ZM102.629 42.5861H103.77C104.227 42.5861 104.503 42.4059 104.503 42.0094C104.503 41.6249 104.227 41.4446 103.782 41.4446H102.629V42.5861ZM105.645 44.076C105.645 44.8931 104.924 45.4578 103.902 45.4578H101.619V40.6516H103.842C104.888 40.6516 105.464 41.1803 105.464 41.8411C105.464 42.3939 105.164 42.7183 104.719 42.9105C105.248 43.0787 105.645 43.4632 105.645 44.076ZM94.8186 44.1241V40.6636H93.8454V45.4698H94.9148L97.2578 42.0094V45.4698H98.231V40.6636H97.1617L94.8186 44.1241ZM89.5078 44.1241V40.6636H88.5345V45.4698H89.6039L91.9469 42.0094V45.4698H92.9202V40.6636H91.8508L89.5078 44.1241ZM84.6776 45.4698H85.6989V41.5648H87.8737V40.6636H84.6896V45.4698H84.6776ZM82.9593 43.0667C82.9593 42.0814 82.2264 41.4446 81.3853 41.4446C80.5322 41.4446 79.7993 42.0694 79.7993 43.0667C79.7993 44.052 80.5322 44.6888 81.3853 44.6888C82.2264 44.6768 82.9593 44.052 82.9593 43.0667ZM83.9927 43.0667C83.9927 44.7249 82.707 45.602 81.3733 45.602C80.0276 45.602 78.7539 44.7249 78.7539 43.0667C78.7539 41.4086 80.0396 40.5314 81.3733 40.5314C82.719 40.5314 83.9927 41.4086 83.9927 43.0667ZM74.2842 43.5233C74.2241 44.4485 74.0799 44.6408 73.7555 44.6408C73.5392 44.6408 73.407 44.5807 73.407 44.5807V45.4578C73.407 45.4578 73.5993 45.5299 73.8156 45.5299C74.7888 45.5299 75.1493 44.9291 75.2214 43.5594L75.3295 41.5648H77.0597V45.4698H78.0811V40.6636H74.4404L74.2842 43.5233ZM72.2656 43.0667C72.2656 42.0814 71.5326 41.4446 70.6915 41.4446C69.8384 41.4446 69.1055 42.0694 69.1055 43.0667C69.1055 44.052 69.8384 44.6888 70.6915 44.6888C71.5326 44.6768 72.2656 44.052 72.2656 43.0667ZM73.2989 43.0667C73.2989 44.7249 72.0132 45.602 70.6795 45.602C69.3338 45.602 68.0601 44.7249 68.0601 43.0667C68.0601 41.4086 69.3458 40.5314 70.6795 40.5314C72.0132 40.5314 73.2989 41.4086 73.2989 43.0667ZM66.366 42.538H64.083V40.6756H63.0617V45.4818H64.083V43.4152H66.366V45.4818H67.3873V40.6756H66.366V42.538ZM62.509 40.6636H61.3435L60.4063 42.1295L59.4691 40.6636H58.3156L59.8536 42.9225L58.0632 45.4698H59.2528L60.4063 43.7035L61.5477 45.4698H62.7253L61.007 42.8985L62.509 40.6636ZM54.3144 42.49H57.2222C57.1381 41.733 56.5493 41.3125 55.8043 41.3125C55.0594 41.3125 54.4826 41.8291 54.3144 42.49ZM57.1981 43.9799L57.9911 44.4004C57.5346 45.1574 56.8617 45.602 55.7803 45.602C54.4225 45.602 53.3051 44.5807 53.3051 43.0667C53.3051 41.5648 54.4346 40.5314 55.8284 40.5314C57.2462 40.5314 58.1954 41.5287 58.1954 42.9345V43.283H54.2904C54.3625 44.1361 54.9392 44.7489 55.8043 44.7489C56.5733 44.7369 56.8857 44.4125 57.1981 43.9799ZM54.1822 38.6931H48.8594V39.6543H50.9861V45.4698H52.0555V39.6543H54.1822V38.6931ZM161.529 25.2838L158.645 32.4811L155.761 25.2838H152.289V35.533H154.812V29.0446L157.612 35.533H159.678L162.478 29.0446V35.533H165.001V25.2838H161.529ZM142.22 30.4264C142.22 32.3128 143.674 33.4063 145.236 33.4063C146.798 33.4063 148.252 32.3128 148.252 30.4264C148.252 28.54 146.798 27.4466 145.236 27.4466C143.674 27.4466 142.22 28.54 142.22 30.4264ZM139.516 30.4264C139.516 26.8218 142.364 25.0074 145.236 25.0074C148.107 25.0074 150.955 26.8338 150.955 30.4264C150.955 34.0311 148.107 35.8454 145.236 35.8454C142.364 35.8454 139.516 34.0311 139.516 30.4264ZM88.6427 35.557H91.2981V27.5667H94.4221V25.2958H85.5187V27.5667H88.6427V35.557ZM120.64 29.0567H126.191C125.939 27.771 124.941 26.99 123.464 26.99C122.082 26.99 121.024 27.9032 120.64 29.0567ZM118.045 30.4264C118.045 27.1822 120.508 25.0074 123.548 25.0074C126.54 25.0074 128.654 27.1462 128.654 30.138V31.0512H120.592C120.76 32.6253 121.902 33.6225 123.464 33.6225C124.881 33.6225 125.47 33.0218 126.119 32.2167L128.234 33.2501C127.176 35.0043 125.722 35.8574 123.428 35.8574C120.52 35.8454 118.045 33.6706 118.045 30.4264ZM103.29 29.0567C103.037 27.771 102.04 26.99 100.574 26.99C99.1803 26.99 98.1229 27.9032 97.7504 29.0567H103.29ZM105.753 30.138V31.0512H97.6903C97.8586 32.6253 99 33.6225 100.562 33.6225C101.98 33.6225 102.569 33.0218 103.217 32.2167L105.332 33.2501C104.275 35.0043 102.821 35.8574 100.526 35.8574C97.6183 35.8574 95.1431 33.6826 95.1431 30.4384C95.1431 27.1942 97.6062 25.0194 100.646 25.0194C103.638 24.9954 105.753 27.1342 105.753 30.138ZM107.339 35.6772C109.598 35.6772 110.439 34.2473 110.655 31.2074L110.907 27.6268H113.899V35.533H116.555V25.2838H108.624L108.18 31.0993C108.048 32.6733 107.735 33.0218 107.183 33.0218C106.81 33.0218 106.63 32.9857 106.378 32.9136L106.39 35.569C106.402 35.5811 106.738 35.6772 107.339 35.6772ZM79.9074 35.8454C82.1423 35.8454 83.6442 34.8481 84.7016 33.0939L82.5028 31.9163C81.8659 32.7815 81.1931 33.4063 79.8834 33.4063C78.2853 33.4063 77.0958 32.2648 77.0958 30.4264C77.0958 28.6001 78.3214 27.4466 79.8834 27.4466C80.8326 27.4466 81.6497 27.8791 82.3105 28.8524L84.5935 27.5667C83.8365 25.9687 82.1904 24.9954 79.9074 24.9954C76.9276 24.9954 74.4043 27.1462 74.4043 30.4144C74.4043 33.6946 76.8074 35.8454 79.9074 35.8454ZM70.4032 30.4264C70.4032 28.54 68.9493 27.4466 67.3873 27.4466C65.8253 27.4466 64.3714 28.54 64.3714 30.4264C64.3714 32.3128 65.8253 33.4063 67.3873 33.4063C68.9493 33.4063 70.4032 32.3128 70.4032 30.4264ZM67.3873 35.8454C64.5156 35.8454 61.6679 34.019 61.6679 30.4264C61.6679 26.8218 64.5156 25.0074 67.3873 25.0074C70.259 25.0074 73.1066 26.8338 73.1066 30.4264C73.1066 34.0311 70.259 35.8454 67.3873 35.8454ZM51.647 28.0594H55.4919C57.4264 28.0594 58.3156 27.1462 58.3156 25.7764C58.3156 24.4067 57.4264 23.4935 55.4919 23.4935H51.647V28.0594ZM51.647 35.557H48.8594V21.0663H55.564C58.8923 21.0663 61.0911 22.7485 61.0911 25.7884C61.0911 28.8284 58.8923 30.5105 55.564 30.5105H51.635V35.557H51.647ZM135.022 30.0539L139.961 35.557H136.753L132.932 31.3156V35.557H130.276V25.2838H132.932V29.0086L136.693 25.2838H139.841L135.022 30.0539Z" fill="white"/>
</svg>
