<svg width="37" height="36" viewBox="0 0 37 36" fill="none" xmlns="http://www.w3.org/2000/svg">
<g clip-path="url(#clip0_628_1324)">
<mask id="mask0_628_1324" style="mask-type:luminance" maskUnits="userSpaceOnUse" x="0" y="0" width="37" height="36">
<path d="M37 0.228516H0V35.7718H37V0.228516Z" fill="white"/>
</mask>
<g mask="url(#mask0_628_1324)">
<path d="M36.6775 14.5938C35.7615 9.96569 33.4419 6.20498 29.5775 3.50444C25.5188 0.668165 20.959 -0.257982 16.0761 0.462007C12.917 0.92781 10.1996 2.37543 7.77355 4.405C7.63587 4.52015 4.80795 7.26184 4.87831 7.55661C7.97295 3.78383 12.3623 1.64336 13.3054 1.6644C12.7141 2.39939 12.2726 3.19315 11.9286 4.04709C11.0905 6.12713 10.7443 8.29854 10.6857 10.5258L10.6622 11.2652C10.2177 11.3399 9.87853 11.7255 9.87853 12.1912C9.87853 12.6287 10.1779 12.9953 10.5826 13.1003L10.5643 13.4361C10.5952 14.5541 10.6392 15.6718 10.6745 16.7897C10.6824 17.0366 10.6757 17.284 10.6757 17.5518C9.74592 17.2733 9.03575 16.8483 8.52789 16.3718L8.32547 16.1797V16.115H9.87848V15.561H7.67339L7.43205 15.3321C6.2227 14.1035 5.19635 12.7528 4.63542 11.102C4.49847 10.699 4.43538 10.2641 4.38992 9.83832C4.3081 9.07192 4.73042 8.59285 5.37897 8.28082C5.56016 8.19365 5.76284 8.14925 5.95793 8.0932C6.68022 7.88588 7.42144 7.93926 8.1587 7.93786C8.51052 7.93716 9.47701 8.11855 9.82714 8.03965C9.19878 7.89998 7.9603 7.62059 7.32979 7.59134C6.56805 7.55591 5.80894 7.63125 5.08637 7.92417C4.28703 8.24813 3.90566 8.86181 3.85883 9.69294C3.84191 9.99314 3.87821 10.3023 3.9332 10.5995C4.10642 11.5356 4.44511 12.4164 4.98663 13.1977C5.47809 13.9067 6.03129 14.5729 6.55255 15.2615C6.55255 15.2615 6.62516 15.3615 6.80829 15.5611H6.10232V16.115H7.35712C7.44702 16.2005 7.54689 16.2933 7.65533 16.3919V20.148H8.32553V16.9778C8.35314 17.0011 8.37861 17.0231 8.40698 17.0469C9.20548 17.4902 9.94997 17.9034 10.7307 18.3369C10.8454 19.1299 10.9622 19.9375 11.0816 20.7633C11.0938 20.8495 11.1004 20.9246 11.1223 21.0447C11.17 21.3748 11.2182 21.7079 11.267 22.0452C11.267 22.0452 11.2718 22.079 11.2816 22.1407C11.0274 22.306 10.8289 22.5381 10.6867 22.8376C10.5438 23.1382 10.4725 23.4839 10.4725 23.8747C10.4725 24.2656 10.5426 24.6077 10.683 24.9007C10.8232 25.1938 11.0199 25.4206 11.273 25.5809C11.5261 25.7414 11.8207 25.8215 12.1564 25.8215C12.1776 25.8215 12.1972 25.8189 12.218 25.8182C12.2259 25.841 12.2336 25.8636 12.2416 25.8863C12.6928 27.0271 13.1305 28.1337 13.5859 29.2852C12.3765 30.0038 11.1702 30.7034 9.80098 31.0623C9.5823 31.1196 9.35086 31.1587 9.12589 31.156C8.29406 31.1464 7.77053 30.7409 7.63313 29.9216C7.55045 29.4285 7.54153 28.9101 7.58902 28.4116C7.64368 27.8384 7.79709 27.2745 7.90757 26.7065C7.64012 27.1684 7.41888 27.6459 7.26226 28.1437C7.09846 28.6644 6.99685 29.2045 6.85869 29.7748C4.99952 27.8668 3.98118 26.4361 3.72968 25.5422C4.08779 25.352 4.37514 25.0739 4.58981 24.7054C4.84781 24.2619 4.97696 23.722 4.97696 23.0857C4.97696 22.5294 4.87658 22.0459 4.67625 21.635C4.47563 21.2243 4.1887 20.9085 3.81546 20.688C3.44192 20.4675 2.99962 20.3573 2.4884 20.3573C1.98213 20.3573 1.54118 20.4675 1.16525 20.688C0.789475 20.9085 0.5012 21.2243 0.300717 21.635C0.100249 22.0459 0 22.532 0 23.0931C0 23.6493 0.101584 24.133 0.304461 24.5438C0.507476 24.9547 0.795611 25.2716 1.16913 25.4945C1.54236 25.7176 1.98211 25.829 2.48839 25.829C2.56822 25.829 2.63313 25.8276 2.68407 25.8251C4.14985 27.8522 5.7578 29.7598 7.62107 31.3586C9.01495 32.5546 10.4742 33.6569 12.1805 34.3906C14.8067 35.5199 17.5581 35.8867 20.3895 35.7418C22.6241 35.6274 24.7711 35.1222 26.7768 34.116C31.1642 31.9151 34.1823 28.4772 35.9102 23.8978C36.4785 22.3917 36.8307 20.829 36.9503 19.2255C37.0661 17.6737 36.9813 16.128 36.6776 14.5938L36.6775 14.5938ZM1.24418 24.649C0.946017 24.2832 0.796945 23.7621 0.796945 23.0856C0.796945 22.4142 0.944683 21.8968 1.24044 21.5335C1.53621 21.1703 1.95214 20.9886 2.48839 20.9886C3.02463 20.9886 3.44191 21.1703 3.74023 21.5335C4.0384 21.8968 4.18747 22.4142 4.18747 23.0856C4.18747 23.7621 4.03839 24.2832 3.74023 24.649C3.44193 25.0148 3.02463 25.1976 2.48839 25.1976C1.95708 25.1976 1.54236 25.0148 1.24418 24.649ZM12.0076 22.5427C12.1065 22.5145 12.2133 22.4993 12.3293 22.4993C12.6751 22.4993 12.9421 22.6172 13.13 22.8525C13.3179 23.0882 13.412 23.4238 13.412 23.8597C13.412 24.2907 13.3179 24.6252 13.13 24.8632C13.004 25.0229 12.8426 25.1278 12.6476 25.1803L12.0076 22.5427ZM11.5286 24.867C11.3356 24.6315 11.2393 24.3008 11.2393 23.8747C11.2393 23.5163 11.307 23.2239 11.4405 22.9954C11.5579 23.5597 11.7407 24.3291 12.0058 25.1769C11.8143 25.1236 11.6548 25.021 11.5286 24.867ZM9.22966 31.8403C10.0246 31.6014 10.8413 31.4168 11.6079 31.1079C12.3789 30.7972 13.1 30.3628 13.9105 29.9481C14.0776 30.2494 14.2352 30.5621 14.4186 30.8589C14.9659 31.7441 15.4791 32.6553 16.0919 33.4934C16.5218 34.0812 17.0927 34.566 17.6215 35.1185C15.4956 35.3267 11.0384 33.534 9.22966 31.8403ZM35.5938 23.7816C34.9458 22.0634 33.8995 20.8424 32.653 19.7812C31.4509 18.7578 29.6022 17.6791 28.1078 17.1256C28.7234 17.553 29.8616 18.2324 30.4712 18.668C31.6143 19.4847 32.6744 20.3971 33.5996 21.4573C34.1557 22.0945 34.6132 22.792 34.8634 23.6136C35.142 24.5283 34.9225 25.3252 34.2986 26.015C33.4816 26.9181 32.4031 27.2797 31.2307 27.3559C28.8087 27.5134 26.4627 27.1652 24.2239 26.1934C24.1838 26.1761 23.4442 25.9114 23.2373 25.9114C24.3293 26.5511 26.0351 27.2009 27.118 27.408C28.6971 27.7098 30.2799 27.8937 31.8916 27.683C32.6403 27.585 33.3025 27.2857 33.9615 26.924C33.6988 28.0414 31.256 30.6913 29.5299 31.9245C26.9953 33.7351 24.1829 34.807 20.9562 35.1855C21.1092 34.9536 21.1969 34.821 21.2843 34.6884C21.9424 33.6904 22.247 32.5648 22.4565 31.4077C22.4676 31.3464 22.4781 31.2872 22.4913 31.2301C22.9461 31.1641 23.2958 30.7738 23.2958 30.3008C23.2958 29.8802 23.0194 29.5242 22.6382 29.4042C22.6355 29.3204 22.6254 29.251 22.6011 29.2217V27.5007C22.5716 27.4982 22.5421 27.4957 22.5127 27.4931C22.4295 28.0604 22.3464 28.6276 22.2558 29.2457C22.2234 29.2695 22.2438 29.3137 22.2751 29.3648C21.7934 29.4056 21.415 29.8087 21.415 30.3008C21.415 30.7105 21.6775 31.0579 22.0431 31.1868C22.0242 31.2197 22.0082 31.2536 21.9983 31.2888C21.7097 32.3167 21.4324 33.3482 20.8811 34.2795C20.3947 35.1012 19.8266 35.4264 18.6767 35.0063C17.8933 34.7201 17.2675 34.1977 16.7119 33.5909C15.6709 32.454 14.8648 31.1665 14.2551 29.7317C16.187 28.308 18.5051 26.5798 20.5123 25.0987C20.5661 25.2528 20.6448 25.3839 20.7494 25.4907C20.9649 25.7114 21.2681 25.8215 21.659 25.8215C21.8696 25.8215 22.0575 25.7939 22.2228 25.7388V25.1225C22.0875 25.1627 21.9547 25.1826 21.8245 25.1826C21.624 25.1826 21.4674 25.1288 21.3546 25.021C21.2473 24.9185 21.1928 24.7448 21.1875 24.5041C23.0901 22.5743 23.7407 21.2519 23.7407 21.2519L21.1854 23.8418V22.567H22.2305V21.9807H21.1854V20.7706L20.4261 21.0336V21.9807H19.6894V22.567H20.4261V24.4823L18.8099 25.6874V23.4087C18.8099 22.3966 18.3562 21.8905 17.4491 21.8905C17.1584 21.8905 16.8991 21.9543 16.671 22.0821C16.4429 22.2098 16.2689 22.3941 16.1486 22.6346L16.0808 21.9807H15.3742C15.4142 22.2963 15.4343 22.6522 15.4343 23.048V25.7689H16.1862V23.6116C16.1862 23.2761 16.2825 23.008 16.4755 22.8074C16.6685 22.6071 16.9253 22.5068 17.2461 22.5068C17.5267 22.5068 17.7311 22.5819 17.8589 22.7323C17.9867 22.8826 18.0505 23.1232 18.0505 23.4539V25.7689H18.7005L18.489 25.9265C16.9773 26.9922 15.5246 28.0162 14.0194 29.0772C13.8902 28.8335 13.7808 28.672 13.7146 28.4944C13.4389 27.7547 13.1654 27.014 12.9113 26.2667L12.7757 25.7078C12.825 25.6877 12.8735 25.6665 12.9195 25.6411C13.1376 25.5208 13.3016 25.348 13.4121 25.1225V25.7689H14.1637V21.9807H13.4121V22.5969C13.2966 22.3715 13.1313 22.1974 12.9158 22.0746C12.7002 21.9519 12.4471 21.8905 12.1565 21.8905C12.0523 21.8905 11.9532 21.9021 11.8563 21.9189L11.8106 21.7305C11.6492 20.7432 11.3961 19.6063 11.4526 18.5083L11.5405 18.5063C11.5406 18.5103 11.541 18.514 11.541 18.518C11.541 19.0377 11.6893 19.4468 11.9856 19.7453C12.282 20.0438 12.6901 20.193 13.2099 20.193C13.4376 20.193 13.6642 20.1554 13.8899 20.0803C14.1154 20.0052 14.3011 19.9031 14.4472 19.7743L14.2475 19.3104C13.9381 19.5553 13.5966 19.6777 13.2228 19.6777C12.5527 19.6777 12.2068 19.2975 12.1854 18.5373H14.5052V18.4278C14.5052 17.9252 14.3795 17.5323 14.1282 17.2489C13.8769 16.9653 13.5322 16.8236 13.0939 16.8236C12.7932 16.8236 12.5247 16.8945 12.2884 17.0362C12.1133 17.1413 11.9674 17.2785 11.8502 17.4473C12.0143 17.5075 12.2026 17.5597 12.4076 17.6406C12.438 17.5991 12.471 17.5604 12.5076 17.5259C12.6623 17.38 12.862 17.3068 13.1069 17.3068C13.3474 17.3068 13.5387 17.3787 13.6804 17.5225C13.8222 17.6665 13.9059 17.8759 13.9316 18.1508H12.6457C12.2024 18.0745 11.7631 17.9543 11.3419 17.84C11.2873 17.074 11.2162 16.3436 11.1886 15.6117C11.1608 14.8743 11.1791 14.1353 11.1715 13.3972C11.1702 13.2726 11.1794 13.1574 11.2053 13.0476C11.5318 12.9002 11.7593 12.5726 11.7593 12.1912C11.7593 11.8421 11.5686 11.5382 11.2862 11.3761C11.2811 11.2195 11.2817 11.0515 11.2918 10.8724C11.4267 8.4727 11.7011 6.11105 12.6844 3.88604C13.0358 3.0908 13.4533 2.33458 14.0696 1.70787C14.7039 1.0629 15.2628 0.969629 16.0642 1.38128C16.7141 1.71507 17.2228 2.21991 17.6149 2.82148C18.0307 3.45943 18.3897 4.13454 18.77 4.79549C18.9015 5.02415 19.3758 6.08058 19.5813 6.45996C19.4982 4.93312 18.0301 2.28361 16.4084 0.842174C19.7999 -0.0692189 26.2572 1.3904 29.5088 3.95692C29.3407 4.00982 29.2031 4.07749 29.0597 4.09444C27.6886 4.25634 26.4838 4.85459 25.304 5.51657C23.943 6.28026 22.7072 7.22653 21.5511 8.26159C20.2246 9.44921 18.965 10.7117 17.6785 11.9439C17.5889 12.0298 17.0654 12.6984 17.0481 12.8829C17.1897 12.776 17.785 12.1072 17.9247 11.998C18.0851 11.8726 18.2439 11.7451 18.401 11.6157C19.8939 10.3863 21.3651 9.12932 22.8855 7.935C24.1065 6.97598 25.4035 6.1167 26.802 5.42875C27.6283 5.02226 28.492 4.7341 29.4249 4.67789C30.308 4.62468 30.8075 4.97231 31.0626 5.82003C31.2628 6.48501 31.1317 7.14029 31.0121 7.78456C30.8924 8.42906 30.6772 9.05578 30.516 9.6458C30.4979 9.71473 30.4859 9.77236 30.4759 9.82585C30.4464 9.82305 30.4166 9.8213 30.3864 9.8213C29.8671 9.8213 29.4461 10.2422 29.4461 10.7615C29.4461 11.0129 29.5454 11.2408 29.7063 11.4095C29.0678 12.8624 27.7874 14.9562 27.0763 16.3293C27.9419 15.4053 29.0825 13.5048 29.6926 12.4082C29.8286 12.1636 29.9441 11.9068 30.0921 11.6701C30.0949 11.6658 30.0972 11.6612 30.0999 11.6568C30.1903 11.6857 30.2865 11.7016 30.3864 11.7016C30.9058 11.7016 31.3268 11.2807 31.3268 10.7615C31.3268 10.4421 31.1672 10.1604 30.9237 9.99046C31.1298 9.33104 31.3669 8.69155 31.5224 8.03284C31.6785 7.37115 31.751 6.68976 31.8588 6.02554C33.5059 7.20468 35.6604 11.2261 36.32 14.494C36.9457 17.5943 36.6942 20.6385 35.5939 23.7816L35.5938 23.7816Z" fill="#126B4B"/>
<path d="M6.11182 21.9808V24.3032C6.11182 25.3155 6.56788 25.8215 7.48018 25.8215C7.7457 25.8215 7.98378 25.7626 8.1943 25.6449C8.40483 25.5272 8.57019 25.3581 8.69051 25.1375V25.7689H9.42725V21.9807H8.66791V24.1078C8.66791 24.4386 8.57398 24.7042 8.38606 24.9046C8.19803 25.105 7.94871 25.2052 7.63797 25.2052C7.37745 25.2052 7.18324 25.1312 7.0554 24.9834C6.92762 24.8357 6.86364 24.6065 6.86364 24.2957V21.9807H6.11182V21.9808Z" fill="#126B4B"/>
<path d="M26.0718 24.1079C26.0718 24.4386 25.9778 24.7042 25.7899 24.9046C25.6019 25.105 25.3526 25.2053 25.0418 25.2053C24.7813 25.2053 24.5871 25.1313 24.4593 24.9834C24.3315 24.8357 24.2675 24.6065 24.2675 24.2957V21.9808H23.5156V24.3032C23.5156 25.3155 23.9717 25.8215 24.884 25.8215C25.1495 25.8215 25.3876 25.7626 25.5981 25.6449C25.8086 25.5272 25.9741 25.3581 26.0944 25.1375V25.7689H26.8311V21.9807H26.0718V24.1078V24.1079Z" fill="#126B4B"/>
<path d="M28.1016 23.0481V25.769H28.8535V23.6269C28.8535 23.281 28.9386 23.0081 29.1091 22.8075C29.2793 22.6073 29.5098 22.5069 29.8007 22.5069C30.0512 22.5069 30.233 22.5821 30.3458 22.7325C30.4584 22.8827 30.5149 23.1207 30.5149 23.4464V25.769H31.2741V23.6269C31.2741 23.281 31.358 23.0081 31.526 22.8075C31.694 22.6073 31.9232 22.5069 32.2139 22.5069C32.4645 22.5069 32.6461 22.5821 32.7589 22.7325C32.8718 22.8827 32.9281 23.1207 32.9281 23.4464V25.769H33.6874V23.4088C33.6874 22.3967 33.2664 21.8906 32.4243 21.8906C32.1435 21.8906 31.8918 21.9558 31.6689 22.0861C31.4458 22.2164 31.2766 22.3942 31.1614 22.6197C30.9809 22.1337 30.5975 21.8906 30.0112 21.8906C29.7355 21.8906 29.4949 21.9534 29.2894 22.0784C29.0839 22.2038 28.9259 22.3818 28.8158 22.6122L28.7481 21.9808H28.0415C28.0815 22.2964 28.1016 22.6523 28.1016 23.0481H28.1016Z" fill="#126B4B"/>
<path d="M17.4245 16.9943C17.2441 17.1081 17.1109 17.2724 17.0249 17.4871L16.967 16.9007H16.3613C16.3956 17.1715 16.4128 17.4764 16.4128 17.8156V20.1478H17.0572V18.3375C17.0572 18.0669 17.1313 17.8425 17.2795 17.6643C17.4277 17.486 17.65 17.3969 17.9464 17.3969C18.084 17.3969 18.2107 17.4185 18.3266 17.4613L18.3395 16.8685C18.2321 16.8386 18.129 16.8235 18.0303 16.8235C17.8068 16.8235 17.6049 16.8804 17.4245 16.9942V16.9943Z" fill="#126B4B"/>
<path d="M21.0071 16.9943C20.8267 17.1081 20.6935 17.2724 20.6075 17.4871L20.5495 16.9007H19.9438C19.9782 17.1715 19.9954 17.4764 19.9954 17.8156V20.1478H20.6397V18.3375C20.6397 18.0669 20.7139 17.8425 20.862 17.6643C21.0102 17.486 21.2326 17.3969 21.5289 17.3969C21.6665 17.3969 21.7932 17.4185 21.9092 17.4613L21.9221 16.8685C21.8147 16.8386 21.7116 16.8235 21.6128 16.8235C21.3893 16.8235 21.1875 16.8804 21.0071 16.9942V16.9943Z" fill="#126B4B"/>
<path d="M24.1356 19.9867C24.3524 20.1242 24.6049 20.1929 24.8927 20.1929C25.1419 20.1929 25.3599 20.1413 25.5467 20.0382C25.7337 19.9352 25.8743 19.787 25.9688 19.5938V20.1478H26.6133V16.9008H25.9688V17.4291C25.8701 17.2358 25.7282 17.0867 25.5436 16.9813C25.3589 16.8762 25.1419 16.8235 24.8927 16.8235C24.6135 16.8235 24.3643 16.8943 24.1452 17.036C23.9262 17.1779 23.7554 17.3776 23.6329 17.6352C23.5105 17.8928 23.4492 18.1893 23.4492 18.5243C23.4492 18.8592 23.5095 19.1525 23.6298 19.4037C23.7499 19.6549 23.9187 19.8493 24.1356 19.9867ZM24.3547 17.6578C24.5199 17.4495 24.7488 17.3454 25.0409 17.3454C25.3374 17.3454 25.5661 17.4463 25.7273 17.6481C25.8884 17.85 25.9688 18.1378 25.9688 18.5114C25.9688 18.8807 25.8884 19.1675 25.7273 19.3715C25.5661 19.5755 25.3395 19.6776 25.0473 19.6776C24.751 19.6776 24.5199 19.5766 24.3547 19.3746C24.1893 19.1729 24.1066 18.8894 24.1066 18.5243C24.1066 18.155 24.1893 17.8662 24.3547 17.6578Z" fill="#126B4B"/>
</g>
</g>
<defs>
<clipPath id="clip0_628_1324">
<rect width="37" height="35.5433" fill="white" transform="translate(0 0.228516)"/>
</clipPath>
</defs>
</svg>
