<svg width="83" height="18" viewBox="0 0 83 18" fill="none" xmlns="http://www.w3.org/2000/svg">
<g clip-path="url(#clip0_628_1268)">
<path d="M17.4028 0.098877V17.2213C22.2191 17.1576 26.0881 13.3508 26.0881 8.65213C26.0881 3.95342 22.203 0.162588 17.4028 0.098877Z" fill="#CBCBCB"/>
<path d="M8.66919 0.098877V17.2213C3.86899 17.1735 -0.0161133 13.3668 -0.0161133 8.66806C-0.0161133 3.96934 3.86899 0.162588 8.66919 0.098877Z" fill="#CBCBCB"/>
<path d="M8.66943 0.098877L17.4029 5.84883V17.2372L8.66943 11.4076V0.098877Z" fill="#9B9B9B"/>
<path fill-rule="evenodd" clip-rule="evenodd" d="M31.4017 5.81713C31.3696 5.84899 31.3535 7.13914 31.3535 8.68414V11.4874H33.2319V9.46461H34.9336V11.4874H36.7156V5.78527H35.8326L34.9496 5.75342L34.9175 6.83651L34.8854 7.91961H33.1837L33.1516 6.85244L33.1195 5.78527H32.2847C31.8191 5.76935 31.4177 5.78527 31.4017 5.81713Z" fill="#9B9B9B"/>
<path fill-rule="evenodd" clip-rule="evenodd" d="M48.7241 8.62024V11.4873H49.6232H50.5222V10.4679V9.44849H51.357H52.2079V10.4679V11.4873H53.1069H53.9899V8.62024V5.7373L53.1069 5.75323L52.2079 5.76916V6.86818V7.9672L51.3891 7.93535L50.5543 7.90349L50.5382 6.83633L50.5061 5.75323H49.6232H48.7241V8.62024Z" fill="#9B9B9B"/>
<path fill-rule="evenodd" clip-rule="evenodd" d="M57.6349 7.21859C57.1211 7.99906 56.6716 8.6521 56.6395 8.6521C56.6074 8.6521 56.5753 8.01499 56.5753 7.25045V5.83287H54.8735V11.4713H56.479L57.4422 10.0378L58.4055 8.60432L58.4376 10.0378L58.4697 11.4713H60.1554V5.7373H59.3687C59.3687 5.75323 58.582 5.78509 58.582 5.78509L57.6509 7.21859H57.6349Z" fill="#9B9B9B"/>
<path fill-rule="evenodd" clip-rule="evenodd" d="M61.1023 5.8011C61.0702 5.83296 61.0381 7.12311 61.0381 8.66811V11.4714H62.9164V9.44858H63.1572C63.382 9.44858 63.4462 9.52822 63.9118 10.468L64.4255 11.4873H66.4965L65.9185 10.4043C65.5975 9.81492 65.2443 9.16188 65.1479 8.97074L64.9553 8.62033L65.6296 7.21868C65.9988 6.45414 66.3038 5.8011 66.3038 5.78517C66.3038 5.76925 65.8704 5.75332 65.3406 5.75332H64.3773L63.8957 6.85234C63.4462 7.87172 63.398 7.95136 63.1572 7.95136H62.9164L62.8843 6.86827L62.8522 5.78517L62.0013 5.75332C61.5358 5.73739 61.1184 5.75332 61.0862 5.78517L61.1023 5.8011Z" fill="#9B9B9B"/>
<path fill-rule="evenodd" clip-rule="evenodd" d="M72.629 7.26626C72.629 9.5758 72.5327 9.87843 71.7621 10.0218L71.4731 10.0855V11.5031L72.2598 11.4712C73.207 11.4234 73.5281 11.2801 73.8813 10.7226C74.2024 10.2288 74.3308 9.51209 74.3308 8.23786V7.25033L74.8927 7.28219L75.4546 7.31404V11.5031H76.3697H77.2847V5.76904H72.6451V7.28219L72.629 7.26626Z" fill="#9B9B9B"/>
<path fill-rule="evenodd" clip-rule="evenodd" d="M66.8335 8.65224V11.4874H68.9687H71.12V10.7706V10.0698H69.8677H68.6155V9.67162V9.27342H69.6911H70.7668L70.7347 8.63631L70.7186 7.9992H69.6911L68.6637 7.98327L68.6316 7.61693L68.5995 7.25059H69.7714H70.9434V6.54976V5.83301H68.8884H66.8335V8.65224Z" fill="#9B9B9B"/>
<path fill-rule="evenodd" clip-rule="evenodd" d="M42.3671 6.85244C42.1263 6.32682 41.9497 6.18347 41.4199 5.92862C41.0988 5.78527 40.8259 5.75342 39.9911 5.75342C39.092 5.75342 38.9154 5.78527 38.498 5.96048C37.5669 6.39053 37.2619 7.15507 37.3261 8.95492C37.3742 10.4362 37.599 10.8981 38.482 11.3441C38.8512 11.5352 39.0278 11.5512 39.8626 11.5512C41.0988 11.5512 41.4199 11.4556 41.9336 10.9459C42.4634 10.4203 42.5597 10.0539 42.5597 8.49301C42.5597 7.39399 42.5437 7.23471 42.351 6.83651L42.3671 6.85244ZM40.6172 10.0062C40.4085 10.261 39.9911 10.3725 39.67 10.2451C39.2365 10.0858 39.2044 9.94244 39.2044 8.63636C39.2044 7.4577 39.2044 7.40991 39.4131 7.20285C39.7503 6.86837 40.3764 6.93208 40.6814 7.33027C40.7617 7.42584 40.7938 7.85589 40.7938 8.62043C40.7938 9.63981 40.7777 9.79909 40.6172 9.99023V10.0062Z" fill="#9B9B9B"/>
<path fill-rule="evenodd" clip-rule="evenodd" d="M48.1788 7.80798C48.1467 6.97974 48.1306 6.9001 47.8898 6.58154C47.7293 6.37448 47.4403 6.16741 47.1353 6.02406C46.6697 5.817 46.5252 5.80107 44.968 5.75329L43.2983 5.72144V11.4714H45.1767V10.0857L45.9633 10.0538C47.0229 10.006 47.7132 9.68747 48.0183 9.09814C48.1949 8.74773 48.227 8.60438 48.1949 7.80798H48.1788ZM45.562 8.74773H45.0643V7.15494H45.5299C46.172 7.15494 46.4128 7.37793 46.4128 7.96726C46.4128 8.55659 46.2202 8.74773 45.562 8.74773Z" fill="#9B9B9B"/>
<path fill-rule="evenodd" clip-rule="evenodd" d="M80.7042 7.52141L79.8052 7.47363L79.7731 6.61352L79.741 5.75342H77.959V11.5034L79.6768 11.4715C81.1859 11.4397 81.4427 11.4237 81.7959 11.2485C82.5184 10.914 82.8716 10.3247 82.8555 9.40089C82.8555 8.12667 82.2294 7.58512 80.6721 7.50548L80.7042 7.52141ZM81.0895 9.8628C80.9611 10.0699 80.6079 10.1814 80.1584 10.1495H79.8052C79.8052 10.1336 79.7731 9.65574 79.7731 9.65574L79.741 9.1779H80.2387C80.6561 9.1779 80.7685 9.20976 80.9611 9.33718C81.2019 9.51239 81.234 9.60796 81.0735 9.84687L81.0895 9.8628Z" fill="#9B9B9B"/>
</g>
<defs>
<clipPath id="clip0_628_1268">
<rect width="83" height="17.2021" fill="white" transform="translate(0 0.0830078)"/>
</clipPath>
</defs>
</svg>
