<svg width="92" height="24" viewBox="0 0 92 24" fill="none" xmlns="http://www.w3.org/2000/svg">
<path d="M1.33088 23.1322C1.34642 23.14 1.36196 23.1478 1.37749 23.1478C1.38526 23.1556 1.4008 23.1556 1.42411 23.1633C1.58727 23.2099 1.75819 23.241 1.94466 23.241H2.85368H6.4043H11.0737L5.0835 17.3518C3.97247 18.4318 3.24215 19.1465 2.70606 19.6749C2.22436 20.141 1.89804 20.4673 1.59504 20.7703C1.21434 21.1433 0.957946 21.3919 0.957946 21.3919C0.77148 21.5861 0.654939 21.8658 0.654939 22.1533C0.64717 22.6039 0.934637 22.9691 1.33088 23.1322Z" fill="#CBCBCB"/>
<path d="M0.647396 22.1535C0.647396 21.866 0.763937 21.5863 0.950403 21.3921C0.950403 21.3921 1.20679 21.1435 1.58749 20.7705C1.8905 20.4675 2.21682 20.149 2.69852 19.675C3.23461 19.1467 3.9727 18.4319 5.07596 17.352C5.40227 17.0334 5.75967 16.6838 6.1559 16.3031C6.16367 16.2953 6.17144 16.2876 6.17921 16.2798C7.97395 14.5317 10.5223 12.0377 14.2672 8.37832L6.04713 0.305908L1.39326 4.87432C0.00253557 6.24173 0.189001 7.13522 0.189001 8.96879V21.5164C0.189001 22.2545 0.662935 22.8838 1.3311 23.1324C0.934864 22.9693 0.647396 22.6041 0.647396 22.1535Z" fill="#9B9B9B"/>
<path d="M89.7934 22.3709V20.1333H89.1641V23.2411H89.8556L91.3706 21.0035V23.2411H92V20.1333H91.3085L89.7934 22.3709ZM91.2774 19.0223H90.8345C90.8345 19.1777 90.7413 19.2942 90.5859 19.2942C90.4305 19.2942 90.3451 19.1855 90.3451 19.0223H89.9022C89.9022 19.4185 90.1741 19.6982 90.5937 19.6982C90.9899 19.6982 91.2774 19.4108 91.2774 19.0223ZM88.0919 21.3143C88.0376 20.8248 87.6569 20.5529 87.1752 20.5529C86.6935 20.5529 86.3205 20.887 86.2117 21.3143H88.0919ZM88.7213 21.6017V21.8271H86.1962C86.2428 22.3787 86.6158 22.7749 87.1752 22.7749C87.6646 22.7749 87.8744 22.5652 88.0764 22.2855L88.5892 22.5574C88.2939 23.0469 87.8589 23.3343 87.1596 23.3343C86.2894 23.3343 85.5591 22.6739 85.5591 21.695C85.5591 20.7238 86.2894 20.0556 87.1907 20.0556C88.1075 20.0479 88.7213 20.6927 88.7213 21.6017ZM82.8942 20.716H83.8887V23.2411H84.5491V20.716H85.5358V20.1333H82.8942V20.716ZM81.4258 22.7283C80.8664 22.7283 80.4546 22.3243 80.4546 21.6872C80.4546 21.0501 80.8819 20.6461 81.4258 20.6461C81.7676 20.6461 82.0551 20.8015 82.2649 21.1433L82.8165 20.8326C82.5834 20.3431 82.1095 20.0479 81.4258 20.0479C80.5401 20.0479 79.7787 20.7083 79.7787 21.6872C79.7787 22.6662 80.4857 23.3266 81.4258 23.3266C82.0862 23.3266 82.5368 23.0235 82.8398 22.5185L82.3115 22.2233C82.1017 22.5185 81.8686 22.7283 81.4258 22.7283ZM78.8541 21.6872C78.8541 21.0501 78.3802 20.6383 77.8363 20.6383C77.2847 20.6383 76.8108 21.0423 76.8108 21.6872C76.8108 22.3243 77.2847 22.7361 77.8363 22.7361C78.388 22.7283 78.8541 22.3243 78.8541 21.6872ZM79.5301 21.6872C79.5301 22.7594 78.6987 23.3266 77.8363 23.3266C76.9662 23.3266 76.1426 22.7594 76.1426 21.6872C76.1426 20.615 76.9739 20.0479 77.8363 20.0479C78.6987 20.0479 79.5301 20.615 79.5301 21.6872ZM75.0393 21.3454H73.5632V20.1411H72.9028V23.2489H73.5632V21.9125H75.0393V23.2489H75.6997V20.1411H75.0393V21.3454ZM72.5531 20.1333H71.7063L70.6962 21.3376V20.1333H70.0358V21.3376L69.0258 20.1333H68.179L69.4764 21.594L68.1557 23.2411H68.9559L70.0358 21.8737V23.2411H70.6962V21.8814L71.7762 23.2411H72.5764L71.2556 21.594L72.5531 20.1333ZM67.3321 21.6872C67.3321 21.0501 66.8582 20.6383 66.3143 20.6383C65.7627 20.6383 65.2887 21.0423 65.2887 21.6872C65.2887 22.3243 65.7627 22.7361 66.3143 22.7361C66.8582 22.7283 67.3321 22.3243 67.3321 21.6872ZM68.0003 21.6872C68.0003 22.7594 67.1689 23.3266 66.3065 23.3266C65.4364 23.3266 64.6128 22.7594 64.6128 21.6872C64.6128 20.615 65.4441 20.0479 66.3065 20.0479C67.1767 20.0479 68.0003 20.615 68.0003 21.6872ZM62.3441 22.4952L61.4118 20.1333H60.5183V23.2411H61.1554V21.0346L62.0722 23.2411H62.6238L63.5328 21.0423V23.2411H64.1699V20.1333H63.2687L62.3441 22.4952ZM59.4384 21.6017C59.7725 21.4774 59.9745 21.2366 59.9745 20.8792C59.9745 20.413 59.6171 20.0479 58.8168 20.0479C58.0554 20.0479 57.6126 20.4286 57.6126 20.918C57.6126 21.0579 57.6436 21.1589 57.667 21.221L58.2263 21.0423C58.2186 21.019 58.2108 20.9802 58.2108 20.9103C58.2108 20.7238 58.4361 20.5684 58.8091 20.5684C59.1664 20.5684 59.3529 20.716 59.3529 20.9491C59.3529 21.19 59.182 21.3687 58.7935 21.3687H58.5371V21.8892H58.8013C59.2131 21.8892 59.4539 22.0524 59.4539 22.3243C59.4539 22.6118 59.2131 22.8215 58.7624 22.8215C58.4284 22.8215 58.1176 22.6662 58.1176 22.3554C58.1176 22.2855 58.1331 22.2388 58.1487 22.1922L57.597 22.0135C57.5659 22.0834 57.5193 22.2233 57.5193 22.3631C57.5193 22.9225 57.97 23.3343 58.7624 23.3343C59.6326 23.3343 60.0988 22.8992 60.0988 22.3476C60.0988 21.9436 59.8268 21.7027 59.4384 21.6017ZM56.5559 21.6872C56.5559 21.0501 56.082 20.6383 55.5381 20.6383C54.9865 20.6383 54.5126 21.0423 54.5126 21.6872C54.5126 22.3243 54.9865 22.7361 55.5381 22.7361C56.082 22.7283 56.5559 22.3243 56.5559 21.6872ZM57.2241 21.6872C57.2241 22.7594 56.3928 23.3266 55.5304 23.3266C54.6602 23.3266 53.8366 22.7594 53.8366 21.6872C53.8366 20.615 54.668 20.0479 55.5304 20.0479C56.3928 20.0479 57.2241 20.615 57.2241 21.6872ZM52.9665 22.301C52.9665 22.0368 52.7955 21.8737 52.4537 21.8737H51.669V22.7283H52.4537C52.7878 22.7283 52.9665 22.5652 52.9665 22.301ZM51.669 21.3764H52.4071C52.7023 21.3764 52.881 21.2599 52.881 21.0035C52.881 20.7549 52.7023 20.6383 52.4148 20.6383H51.669V21.3764ZM53.6191 22.3398C53.6191 22.8682 53.1529 23.2333 52.4925 23.2333H51.0163V20.1256H52.4537C53.1296 20.1256 53.5026 20.4674 53.5026 20.8947C53.5026 21.2521 53.3083 21.4619 53.0208 21.5862C53.3627 21.695 53.6191 21.9436 53.6191 22.3398ZM46.6189 22.3709V20.1333H45.9895V23.2411H46.681L48.196 21.0035V23.2411H48.8254V20.1333H48.1339L46.6189 22.3709ZM43.1848 22.3709V20.1333H42.5555V23.2411H43.2469L44.762 21.0035V23.2411H45.3913V20.1333H44.6998L43.1848 22.3709ZM40.0615 23.2411H40.7219V20.716H42.1281V20.1333H40.0692V23.2411H40.0615ZM38.9505 21.6872C38.9505 21.0501 38.4765 20.6383 37.9327 20.6383C37.381 20.6383 36.9071 21.0423 36.9071 21.6872C36.9071 22.3243 37.381 22.7361 37.9327 22.7361C38.4765 22.7283 38.9505 22.3243 38.9505 21.6872ZM39.6186 21.6872C39.6186 22.7594 38.7873 23.3266 37.9249 23.3266C37.0547 23.3266 36.2312 22.7594 36.2312 21.6872C36.2312 20.615 37.0625 20.0479 37.9249 20.0479C38.7951 20.0479 39.6186 20.615 39.6186 21.6872ZM33.3409 21.9824C33.3021 22.5807 33.2089 22.705 32.9991 22.705C32.8592 22.705 32.7738 22.6662 32.7738 22.6662V23.2333C32.7738 23.2333 32.8981 23.2799 33.0379 23.2799C33.6673 23.2799 33.9003 22.8915 33.947 22.0058L34.0169 20.716H35.1357V23.2411H35.7961V20.1333H33.4419L33.3409 21.9824ZM32.0357 21.6872C32.0357 21.0501 31.5617 20.6383 31.0179 20.6383C30.4663 20.6383 29.9923 21.0423 29.9923 21.6872C29.9923 22.3243 30.4663 22.7361 31.0179 22.7361C31.5617 22.7283 32.0357 22.3243 32.0357 21.6872ZM32.7039 21.6872C32.7039 22.7594 31.8725 23.3266 31.0101 23.3266C30.1399 23.3266 29.3164 22.7594 29.3164 21.6872C29.3164 20.615 30.1477 20.0479 31.0101 20.0479C31.8725 20.0479 32.7039 20.615 32.7039 21.6872ZM28.2209 21.3454H26.7447V20.1411H26.0843V23.2489H26.7447V21.9125H28.2209V23.2489H28.8813V20.1411H28.2209V21.3454ZM25.7269 20.1333H24.9733L24.3673 21.0812L23.7613 20.1333H23.0154L24.0099 21.594L22.8522 23.2411H23.6214L24.3673 22.099L25.1054 23.2411H25.8668L24.7557 21.5784L25.7269 20.1333ZM20.4282 21.3143H22.3084C22.254 20.8248 21.8733 20.5529 21.3916 20.5529C20.9099 20.5529 20.537 20.887 20.4282 21.3143ZM22.2928 22.2777L22.8056 22.5496C22.5104 23.0391 22.0753 23.3266 21.3761 23.3266C20.4981 23.3266 19.7756 22.6662 19.7756 21.6872C19.7756 20.716 20.5059 20.0479 21.4071 20.0479C22.3239 20.0479 22.9377 20.6927 22.9377 21.6017V21.8271H20.4127C20.4593 22.3787 20.8322 22.7749 21.3916 22.7749C21.8888 22.7672 22.0908 22.5574 22.2928 22.2777ZM20.3427 18.8591H16.9009V19.4807H18.2761V23.2411H18.9675V19.4807H20.3427V18.8591ZM89.7546 10.1885L87.8899 14.8424L86.0253 10.1885H83.7799V16.8158H85.4115V12.6203L87.2218 16.8158H88.5581L90.3684 12.6203V16.8158H92V10.1885H89.7546ZM77.2692 13.5138C77.2692 14.7336 78.2093 15.4406 79.2193 15.4406C80.2293 15.4406 81.1694 14.7336 81.1694 13.5138C81.1694 12.294 80.2293 11.587 79.2193 11.587C78.2093 11.587 77.2692 12.294 77.2692 13.5138ZM75.521 13.5138C75.521 11.183 77.3624 10.0098 79.2193 10.0098C81.0762 10.0098 82.9175 11.1907 82.9175 13.5138C82.9175 15.8446 81.0762 17.0178 79.2193 17.0178C77.3624 17.0178 75.521 15.8446 75.521 13.5138ZM42.6254 16.8313H44.3424V11.6647H46.3625V10.1963H40.6053V11.6647H42.6254V16.8313ZM63.3153 12.6281H66.9048C66.7416 11.7968 66.0968 11.2917 65.1411 11.2917C64.2476 11.2917 63.5639 11.8822 63.3153 12.6281ZM61.6371 13.5138C61.6371 11.4161 63.2298 10.0098 65.1955 10.0098C67.1301 10.0098 68.4975 11.3927 68.4975 13.3273V13.9178H63.2842C63.393 14.9356 64.1311 15.5805 65.1411 15.5805C66.0579 15.5805 66.4386 15.192 66.8582 14.6714L68.2256 15.3396C67.5419 16.4739 66.6018 17.0256 65.1178 17.0256C63.2376 17.0178 61.6371 15.6115 61.6371 13.5138ZM52.0963 12.6281C51.9331 11.7968 51.2883 11.2917 50.3404 11.2917C49.4392 11.2917 48.7554 11.8822 48.5146 12.6281H52.0963ZM53.689 13.3273V13.9178H48.4757C48.5845 14.9356 49.3226 15.5805 50.3326 15.5805C51.2494 15.5805 51.6301 15.192 52.0497 14.6714L53.4171 15.3396C52.7334 16.4739 51.7933 17.0256 50.3093 17.0256C48.4291 17.0256 46.8286 15.6193 46.8286 13.5216C46.8286 11.4238 48.4214 10.0176 50.387 10.0176C52.3216 10.002 53.689 11.385 53.689 13.3273ZM54.7146 16.909C56.1752 16.909 56.7191 15.9845 56.8589 14.0188L57.0221 11.7035H58.9567V16.8158H60.6737V10.1885H55.5459L55.2584 13.9489C55.173 14.9667 54.971 15.192 54.6136 15.192C54.3727 15.192 54.2562 15.1687 54.093 15.1221L54.1008 16.8391C54.1086 16.8469 54.3261 16.909 54.7146 16.909ZM36.977 17.0178C38.4221 17.0178 39.3933 16.3729 40.077 15.2386L38.6552 14.4772C38.2434 15.0366 37.8083 15.4406 36.9615 15.4406C35.9282 15.4406 35.159 14.7025 35.159 13.5138C35.159 12.3328 35.9515 11.587 36.9615 11.587C37.5753 11.587 38.1036 11.8667 38.5309 12.496L40.0071 11.6647C39.5176 10.6313 38.4532 10.002 36.977 10.002C35.0502 10.002 33.4186 11.3927 33.4186 13.506C33.4186 15.6271 34.9725 17.0178 36.977 17.0178ZM30.8314 13.5138C30.8314 12.294 29.8913 11.587 28.8813 11.587C27.8713 11.587 26.9312 12.294 26.9312 13.5138C26.9312 14.7336 27.8713 15.4406 28.8813 15.4406C29.8913 15.4406 30.8314 14.7336 30.8314 13.5138ZM28.8813 17.0178C27.0244 17.0178 25.1831 15.8368 25.1831 13.5138C25.1831 11.183 27.0244 10.0098 28.8813 10.0098C30.7382 10.0098 32.5795 11.1907 32.5795 13.5138C32.5795 15.8446 30.7382 17.0178 28.8813 17.0178ZM18.7034 11.9832H21.1896C22.4405 11.9832 23.0154 11.3927 23.0154 10.507C23.0154 9.62132 22.4405 9.03084 21.1896 9.03084H18.7034V11.9832ZM18.7034 16.8313H16.9009V7.46143H21.2362C23.3883 7.46143 24.8101 8.54914 24.8101 10.5148C24.8101 12.4805 23.3883 13.5682 21.2362 13.5682H18.6956V16.8313H18.7034ZM72.6153 13.2729L75.8085 16.8313H73.7341L71.2634 14.0887V16.8313H69.5464V10.1885H71.2634V12.597L73.6952 10.1885H75.7308L72.6153 13.2729Z" fill="#CBCBCB"/>
</svg>
