<svg width="74" height="21" viewBox="0 0 74 21" fill="none" xmlns="http://www.w3.org/2000/svg">
<path fill-rule="evenodd" clip-rule="evenodd" d="M58.7374 6.61838L61.4609 4.60571H52.332V16.6578H61.4609V14.6451H54.9437V11.5702H60.5105V9.55751H54.9437V6.61838H58.7374Z" fill="#CBCBCB"/>
<path fill-rule="evenodd" clip-rule="evenodd" d="M45.4393 9.30194H42.2765V6.61838H47.3322L50.0557 4.60571H39.6729V16.6578H45.1039C48.1468 16.6578 49.9039 15.276 49.9039 12.872C49.9039 10.5638 48.3225 9.30194 45.4393 9.30194ZM45.008 14.6451H42.2845V11.3146H45.008C46.6693 11.3146 47.436 11.8657 47.436 12.9918C47.436 14.11 46.6054 14.6451 45.008 14.6451Z" fill="#CBCBCB"/>
<path fill-rule="evenodd" clip-rule="evenodd" d="M68.8485 4.60571H63.8887V16.6578H66.4924V13.2474H68.8644C72.0272 13.2474 73.9999 11.5941 73.9999 8.92656C74.0079 6.25898 72.0272 4.60571 68.8485 4.60571ZM68.7926 11.2347H66.4844V6.61838H68.7926C70.4698 6.61838 71.3803 7.449 71.3803 8.92656C71.3803 10.4041 70.4698 11.2347 68.7926 11.2347Z" fill="#CBCBCB"/>
<path fill-rule="evenodd" clip-rule="evenodd" d="M35.2082 14.0541C34.5134 14.4295 33.7467 14.6292 32.956 14.6292C30.6079 14.6292 28.9067 12.952 28.9067 10.6438C28.9067 8.3356 30.6079 6.65838 32.956 6.65838C33.8026 6.64241 34.6332 6.91396 35.328 7.40914L37.2049 6.02743L37.0851 5.90762C35.9989 4.94122 34.5374 4.44604 32.8761 4.44604C31.0791 4.44604 29.4418 5.06103 28.2518 6.1632C27.0697 7.30531 26.3988 8.90266 26.4308 10.5639C26.4148 12.2411 27.0617 13.8545 28.2518 15.0445C29.4977 16.2106 31.1589 16.8575 32.8521 16.8176C34.729 16.8176 36.3663 16.1626 37.4765 14.9806L35.7993 13.7347L35.2082 14.0541Z" fill="#CBCBCB"/>
<path d="M18.1722 4.41089C18.6443 5.02071 19.0377 5.68959 19.3722 6.39778L10.2835 13.106L6.46729 10.706V7.83383L10.2641 10.2142L18.1722 4.41089Z" fill="#CBCBCB"/>
<path d="M2.59168 10.5073C2.59168 10.3696 2.59168 10.2516 2.61135 10.1138L0.309715 9.99585C0.309715 10.1532 0.290039 10.3303 0.290039 10.4876C0.290039 13.2418 1.41135 15.74 3.22117 17.5501L4.85394 15.9173C3.45721 14.5402 2.59168 12.6319 2.59168 10.5073Z" fill="#CBCBCB"/>
<path d="M10.2639 2.83583C10.4016 2.83583 10.5197 2.83583 10.6574 2.85551L10.7754 0.553852C10.618 0.553852 10.441 0.53418 10.2836 0.53418C7.52952 0.53418 5.03129 1.6555 3.22119 3.46533L4.85396 5.09811C6.23101 3.70137 8.15901 2.83583 10.2639 2.83583Z" fill="#CBCBCB"/>
<path d="M10.2639 18.182C10.1262 18.182 10.0082 18.182 9.87048 18.1623L9.75244 20.464C9.90982 20.464 10.0869 20.4836 10.2443 20.4836C12.9983 20.4836 15.4966 19.3623 17.3067 17.5525L15.6739 15.9197C14.2968 17.3361 12.3885 18.182 10.2639 18.182Z" fill="#CBCBCB"/>
<path d="M14.5916 4.17565L16.5392 2.73956C14.8277 1.36253 12.6442 0.516602 10.2637 0.516602V2.81826C11.8768 2.83793 13.3718 3.32975 14.5916 4.17565Z" fill="#CBCBCB"/>
<path d="M20.2568 10.5072C20.2568 9.89738 20.1978 9.30719 20.0995 8.71704L17.9552 10.3105V10.5072C17.9552 12.7695 16.9716 14.7957 15.4175 16.1926L16.9716 17.9041C18.9781 16.0942 20.2568 13.4387 20.2568 10.5072Z" fill="#CBCBCB"/>
<path d="M10.2635 18.182C8.00117 18.182 5.97502 17.1984 4.57816 15.6443L2.8667 17.1984C4.69619 19.2246 7.3321 20.4837 10.2636 20.4837L10.2635 18.182Z" fill="#CBCBCB"/>
<path d="M5.12939 4.82356L3.57528 3.11206C1.54906 4.94157 0.290039 7.57749 0.290039 10.5086H2.59168C2.59168 8.266 3.57528 6.22044 5.12939 4.82356Z" fill="#CBCBCB"/>
</svg>
