<svg width="40" height="40" viewBox="0 0 40 40" fill="none" xmlns="http://www.w3.org/2000/svg">
<g clip-path="url(#clip0_628_1131)">
<path d="M2.8837e-07 19.1667C2.8837e-07 10.15 1.98682e-07 5.625 2.80833 2.80833C5.61667 -0.00833333 10.15 2.8837e-07 19.1667 2.8837e-07H20.8333C29.85 2.8837e-07 34.375 1.98682e-07 37.1917 2.80833C40.0083 5.61667 40 10.15 40 19.1667V20.8333C40 29.8833 40 34.4083 37.1917 37.225C34.3833 40.0417 29.85 40 20.8333 40H19.1667C10.15 40 5.625 40 2.80833 37.1917C-0.00833333 34.3833 2.8837e-07 29.85 2.8837e-07 20.8333V19.1667Z" fill="#0077FF"/>
<path d="M21.2833 28.8166C12.1667 28.8166 6.96667 22.5666 6.75 12.1499H11.3167C11.4667 19.7832 14.8333 22.9832 17.5 23.6832V12.1666H21.8V18.7499C24.4333 18.4666 27.2 15.4666 28.1333 12.1666H32.4333C32.0878 13.8826 31.3913 15.5087 30.3874 16.9428C29.3836 18.3768 28.0941 19.5879 26.6 20.4999C28.2658 21.3261 29.7375 22.4959 30.9182 23.9323C32.0989 25.3687 32.9618 27.0391 33.45 28.8332H28.7C28.2642 27.2719 27.3768 25.8741 26.1491 24.8155C24.9215 23.7569 23.4084 23.0847 21.8 22.8832V28.8332L21.2833 28.8166Z" fill="white"/>
</g>
<defs>
<clipPath id="clip0_628_1131">
<rect width="40" height="40" fill="white"/>
</clipPath>
</defs>
</svg>
