<svg width="155" height="27" viewBox="0 0 155 27" fill="none" xmlns="http://www.w3.org/2000/svg">
<path d="M50.3386 13.9184C50.3386 14.1576 50.322 14.4526 50.2889 14.8034H39.8897C40.0224 15.7762 40.437 16.5575 41.1336 17.1475C41.8302 17.7216 42.7175 18.0087 43.7956 18.0087C44.5254 18.0087 45.1805 17.8731 45.761 17.602C46.3581 17.3309 46.8142 16.9642 47.1293 16.5017L49.8162 16.9323C49.3518 18.0804 48.5474 18.9654 47.403 19.5873C46.2751 20.2092 45.0146 20.5202 43.6215 20.5202C42.3278 20.5202 41.1668 20.2491 40.1385 19.7069C39.1268 19.1488 38.3307 18.3834 37.7502 17.4107C37.1863 16.422 36.9043 15.3058 36.9043 14.0619C36.9043 12.8181 37.1863 11.7099 37.7502 10.7371C38.3307 9.74846 39.1268 8.98304 40.1385 8.44087C41.1668 7.88274 42.3278 7.60368 43.6215 7.60368C44.9151 7.60368 46.0678 7.88274 47.0795 8.44087C48.1079 8.98304 48.904 9.74049 49.4679 10.7132C50.0484 11.67 50.3386 12.7384 50.3386 13.9184ZM43.6215 9.99563C42.759 9.99563 42.0044 10.2348 41.3575 10.7132C40.7273 11.1916 40.296 11.8374 40.0638 12.6507H47.2288C46.98 11.8534 46.5322 11.2155 45.8854 10.7371C45.2551 10.2428 44.5005 9.99563 43.6215 9.99563Z" fill="white"/>
<path d="M58.1407 20.5202C56.9299 20.5202 55.8436 20.2491 54.8816 19.7069C53.9197 19.1488 53.165 18.3834 52.6177 17.4107C52.087 16.422 51.8216 15.3058 51.8216 14.0619C51.8216 12.8181 52.087 11.7099 52.6177 10.7371C53.165 9.74846 53.9197 8.98304 54.8816 8.44087C55.8436 7.88274 56.9299 7.60368 58.1407 7.60368C59.1856 7.60368 60.1144 7.81099 60.9271 8.22559C61.7398 8.62425 62.4032 9.12656 62.9173 9.73252V3.41778H65.7784V20.281H63.6388L63.0417 18.2718C62.511 18.8937 61.831 19.4279 61.0017 19.8744C60.1724 20.3049 59.2188 20.5202 58.1407 20.5202ZM58.8373 18.0565C60.048 18.0565 61.0266 17.6897 61.7729 16.9562C62.5359 16.2067 62.9173 15.242 62.9173 14.0619C62.9173 12.8819 62.5359 11.9251 61.7729 11.1916C61.0266 10.4421 60.048 10.0674 58.8373 10.0674C57.6431 10.0674 56.6729 10.4421 55.9265 11.1916C55.1802 11.9251 54.807 12.8819 54.807 14.0619C54.807 15.242 55.1802 16.2067 55.9265 16.9562C56.6729 17.6897 57.6431 18.0565 58.8373 18.0565Z" fill="white"/>
<path d="M73.8642 20.5202C72.952 20.5202 72.1227 20.2969 71.3764 19.8504C70.6466 19.404 70.0661 18.79 69.6349 18.0087C69.2202 17.2273 69.0129 16.3423 69.0129 15.3536V7.84288H71.8739V15.0426C71.8739 15.9356 72.131 16.6612 72.6452 17.2193C73.1759 17.7774 73.8476 18.0565 74.6603 18.0565C75.4896 18.0565 76.1779 17.7774 76.7252 17.2193C77.2725 16.6452 77.5462 15.9197 77.5462 15.0426V7.84288H80.4072V20.281H78.2677L77.6955 18.4153C77.2808 19.0691 76.7335 19.5873 76.0535 19.97C75.3735 20.3368 74.6437 20.5202 73.8642 20.5202Z" fill="white"/>
<path d="M89.6373 20.5202C88.3436 20.5202 87.1826 20.2491 86.1543 19.7069C85.126 19.1488 84.3216 18.3834 83.7411 17.4107C83.1772 16.422 82.8952 15.3058 82.8952 14.0619C82.8952 12.8181 83.1772 11.7099 83.7411 10.7371C84.3216 9.74846 85.126 8.98304 86.1543 8.44087C87.1826 7.88274 88.3436 7.60368 89.6373 7.60368C91.0636 7.60368 92.3241 7.94653 93.4188 8.63222C94.53 9.30197 95.3178 10.2587 95.7822 11.5026L93.0954 11.9331C92.8134 11.3909 92.3739 10.9524 91.7768 10.6175C91.1963 10.2827 90.5412 10.1152 89.8114 10.1152C88.6504 10.1152 87.7051 10.482 86.9753 11.2155C86.2455 11.9491 85.8806 12.8979 85.8806 14.0619C85.8806 15.226 86.2455 16.1748 86.9753 16.9084C87.7051 17.6419 88.6504 18.0087 89.8114 18.0087C90.5744 18.0087 91.2544 17.8412 91.8515 17.5063C92.4485 17.1555 92.8963 16.7011 93.1949 16.1429L95.8817 16.5735C95.4173 17.8332 94.613 18.806 93.4685 19.4917C92.3241 20.1773 91.0471 20.5202 89.6373 20.5202Z" fill="white"/>
<path d="M103.153 7.60368C104.811 7.60368 106.113 8.10599 107.059 9.11061C108.021 10.0993 108.502 11.4946 108.502 13.2965V20.281H106.387L105.79 18.3196C105.425 18.9096 104.886 19.4279 104.173 19.8744C103.46 20.3049 102.614 20.5202 101.635 20.5202C100.773 20.5202 99.9933 20.3528 99.2967 20.0179C98.6167 19.683 98.0859 19.2126 97.7045 18.6066C97.323 18.0007 97.1323 17.315 97.1323 16.5496C97.1323 15.3695 97.6133 14.4287 98.5752 13.7271C99.5538 13.0095 100.972 12.6507 102.829 12.6507H105.616C105.549 11.8215 105.284 11.1677 104.82 10.6893C104.372 10.195 103.767 9.94779 103.004 9.94779C102.39 9.94779 101.859 10.0913 101.411 10.3783C100.964 10.6654 100.632 11.0162 100.416 11.4308L97.7791 11.0002C98.0942 9.94779 98.7411 9.11858 99.7196 8.51262C100.715 7.90666 101.859 7.60368 103.153 7.60368ZM102.307 18.2C103.302 18.2 104.107 17.8891 104.72 17.2671C105.334 16.6452 105.641 15.824 105.641 14.8034H102.929C100.988 14.8034 100.018 15.3456 100.018 16.43C100.018 16.9721 100.225 17.4027 100.64 17.7216C101.055 18.0405 101.61 18.2 102.307 18.2Z" fill="white"/>
<path d="M119.318 17.8891L119.069 20.281H116.656C115.246 20.281 114.176 19.9621 113.446 19.3242C112.717 18.6704 112.352 17.7296 112.352 16.5017V10.2348H110.237V7.84288H112.352L113.073 4.25496H115.213V7.84288H119.069V10.2348H115.213V16.5017C115.213 17.4266 115.694 17.8891 116.656 17.8891H119.318Z" fill="white"/>
<path d="M124.552 20.281H121.691V7.84288H124.552V20.281ZM123.134 6.07284C122.603 6.07284 122.172 5.92135 121.84 5.61837C121.508 5.29944 121.343 4.89281 121.343 4.39848C121.343 3.90414 121.508 3.49751 121.84 3.17858C122.188 2.85966 122.62 2.7002 123.134 2.7002C123.648 2.7002 124.071 2.85966 124.403 3.17858C124.734 3.49751 124.9 3.90414 124.9 4.39848C124.9 4.89281 124.734 5.29944 124.403 5.61837C124.071 5.92135 123.648 6.07284 123.134 6.07284Z" fill="white"/>
<path d="M134.077 20.5202C132.751 20.5202 131.556 20.2491 130.495 19.7069C129.45 19.1488 128.629 18.3834 128.032 17.4107C127.451 16.422 127.161 15.3058 127.161 14.0619C127.161 12.8181 127.451 11.7099 128.032 10.7371C128.629 9.74846 129.45 8.98304 130.495 8.44087C131.556 7.88274 132.751 7.60368 134.077 7.60368C135.404 7.60368 136.59 7.88274 137.635 8.44087C138.697 8.98304 139.517 9.74846 140.098 10.7371C140.695 11.7099 140.994 12.8181 140.994 14.0619C140.994 15.3058 140.695 16.422 140.098 17.4107C139.517 18.3834 138.697 19.1488 137.635 19.7069C136.59 20.2491 135.404 20.5202 134.077 20.5202ZM134.077 18.0087C135.238 18.0087 136.184 17.6499 136.914 16.9323C137.643 16.1987 138.008 15.242 138.008 14.0619C138.008 12.8819 137.643 11.9331 136.914 11.2155C136.184 10.482 135.238 10.1152 134.077 10.1152C132.916 10.1152 131.971 10.482 131.241 11.2155C130.512 11.9331 130.147 12.8819 130.147 14.0619C130.147 15.242 130.512 16.1987 131.241 16.9323C131.971 17.6499 132.916 18.0087 134.077 18.0087Z" fill="white"/>
<path d="M143.481 20.281V7.84288H145.62L146.193 9.7086C146.607 9.0548 147.155 8.54452 147.835 8.17775C148.531 7.79504 149.278 7.60368 150.074 7.60368C151.002 7.60368 151.84 7.82693 152.586 8.27343C153.333 8.71992 153.921 9.33386 154.353 10.1152C154.784 10.8966 155 11.7816 155 12.7703V20.281H152.139V13.0812C152.139 12.1882 151.873 11.4627 151.342 10.9046C150.812 10.3464 150.132 10.0674 149.302 10.0674C148.44 10.0674 147.727 10.3544 147.163 10.9285C146.616 11.4866 146.342 12.2042 146.342 13.0812V20.281H143.481Z" fill="white"/>
<path d="M0 12.96C0 6.8506 0 3.7959 1.92163 1.89795C3.84325 0 6.93607 0 13.1217 0H14.2152C20.4008 0 23.4936 0 25.4152 1.89795C27.3369 3.7959 27.3369 6.8506 27.3369 12.96V14.04C27.3369 20.1494 27.3369 23.2041 25.4152 25.1021C23.4936 27 20.4008 27 14.2152 27H13.1217C6.93607 27 3.84325 27 1.92163 25.1021C0 23.2041 0 20.1494 0 14.04V12.96Z" fill="white"/>
<path d="M14.5437 19.4511C8.31316 19.4511 4.7594 15.2324 4.61133 8.2124H7.73228C7.83479 13.3649 10.1356 15.5474 11.9581 15.9974V8.2124H14.8969V12.6561C16.6965 12.4649 18.5871 10.4399 19.225 8.2124H22.1638C21.674 10.9574 19.6237 12.9824 18.1657 13.8149C19.6237 14.4899 21.9589 16.2561 22.8473 19.4511H19.6123C18.9175 17.3136 17.1863 15.6599 14.8969 15.4349V19.4511H14.5437Z" fill="#0077FF"/>
</svg>
